<?xml version="1.0" standalone="yes"?>
<svg xmlns="http://www.w3.org/2000/svg" width="394" height="143">
<path style="fill:#020202; stroke:none;" d="M0 0L0 143L394 143L394 0L0 0z"/>
<path style="fill:#9b9169; stroke:none;" d="M289 9L290 10L289 9z"/>
<path style="fill:#f6f6f6; stroke:none;" d="M290 9C281.876 26.3679 274.223 45.4933 269.158 64C264.664 80.421 275.106 83.4975 288 76C291.306 92.2383 305.592 78.4662 305.956 68C306.046 65.402 306.096 60.7326 302.772 60.0208C298.348 59.0737 293.894 65.3499 291 67.7878C285.831 72.1417 278.647 75.0045 272 76C275.473 59.3883 283.107 42.7312 289.4 27C291.774 21.0649 297.539 12.8393 290 9z"/>
<path style="fill:#9b9169; stroke:none;" d="M292 9L293 10L292 9M293 10L294 11L293 10z"/>
<path style="fill:#69644f; stroke:none;" d="M288 11L289 12L288 11z"/>
<path style="fill:#9b9169; stroke:none;" d="M294 11L295 12L294 11z"/>
<path style="fill:#fcdd58; stroke:none;" d="M288 12L289 13L288 12z"/>
<path style="fill:#9b9169; stroke:none;" d="M287 14L288 15L287 14M294 14L295 15L294 14z"/>
<path style="fill:#69644f; stroke:none;" d="M286 16L287 17L286 16z"/>
<path style="fill:#9b9169; stroke:none;" d="M293 16L294 17L293 16z"/>
<path style="fill:#fcdd58; stroke:none;" d="M286 17L287 18L286 17z"/>
<path style="fill:#69644f; stroke:none;" d="M293 17L294 18L293 17M285 18L286 19L285 18M353 18L354 19L353 18z"/>
<path style="fill:#9b9169; stroke:none;" d="M285 19L286 20L285 19M292 19L293 20L292 19z"/>
<path style="fill:#f6f6f6; stroke:none;" d="M352 19C350.295 23.1547 348.553 30.4292 344.61 32.973C337.032 37.8613 317.112 37.2799 308 38C312.492 46.9056 334.12 40 343 40C334.609 55.7569 334.26 71.1855 314 76C316.099 70.6741 321.483 63.8719 314 61C310.537 66.3 302.757 82.9539 316.004 81.7431C321.589 81.2325 326.417 76.8259 331 74C329.614 81.3559 323.408 100.97 333 104C333.011 87.2062 337.191 70.5216 343.4 55C345.154 50.6133 346.946 42.6009 351.225 40.0278C360.319 34.5583 378.856 41.505 388 44C384.514 32.2257 362.695 34 353 34C354.577 28.5226 359.908 21.4025 352 19z"/>
<path style="fill:#9b9169; stroke:none;" d="M355 19L356 20L355 19z"/>
<path style="fill:#69644f; stroke:none;" d="M351 20L352 21L351 20z"/>
<path style="fill:#9b9169; stroke:none;" d="M356 20L357 21L356 20z"/>
<path style="fill:#69644f; stroke:none;" d="M148 21L148 22L160 22L148 21M284 21L285 22L284 21z"/>
<path style="fill:#9b9169; stroke:none;" d="M291 21L292 22L291 21z"/>
<path style="fill:#69644f; stroke:none;" d="M357 21L358 22L357 21M138 22L139 23L138 22z"/>
<path style="fill:#9b9169; stroke:none;" d="M139.667 22.3333L140.333 22.6667L139.667 22.3333z"/>
<path style="fill:#fcdd58; stroke:none;" d="M141 22L142 23L141 22z"/>
<path style="fill:#f6f6f6; stroke:none;" d="M117 39C128.43 25.318 152.89 25.9641 169 28C155.893 42.1973 134.319 51.994 119 64.1991C115.671 66.8518 102.681 74.2891 105.176 79.6813C107.243 84.1487 118.327 80.3413 122 80.0895C132.361 79.3793 145.51 80.3822 155 84.919C159.439 87.0412 162.551 90.9284 167 93L162 84C176.442 79.0489 174.201 50.3705 160.185 65.0934C158.545 66.8167 157.038 68.8042 156.09 71C154.856 73.8563 155.009 76.9576 155 80C142.396 75.9699 130.145 75 117 75C124.174 68.3965 132.158 62.6647 140 56.8843C145.278 52.9938 150.647 49.2116 156 45.4244C159.596 42.88 163.261 40.3949 167 38.064C177.13 31.7489 176.486 24.7164 164 22.4645C151.852 20.2734 136.671 21.9175 125 25.7492C119.483 27.5606 107.269 34.0332 117 39z"/>
<path style="fill:#9b9169; stroke:none;" d="M164.667 22.3333L165.333 22.6667L164.667 22.3333z"/>
<path style="fill:#69644f; stroke:none;" d="M166 22L167 23L166 22M291 22L292 23L291 22M350 22L351 23L350 22z"/>
<path style="fill:#9b9169; stroke:none;" d="M357.333 22.6667L357.667 23.3333L357.333 22.6667z"/>
<path style="fill:#69644f; stroke:none;" d="M132 23L133 24L132 23z"/>
<path style="fill:#9b9169; stroke:none;" d="M133.667 23.3333L134.333 23.6667L133.667 23.3333z"/>
<path style="fill:#fcdd58; stroke:none;" d="M168 23L169 24L168 23z"/>
<path style="fill:#69644f; stroke:none;" d="M169 23L170 24L169 23M283 23L284 24L283 23M127 24L128 25L127 24z"/>
<path style="fill:#9b9169; stroke:none;" d="M128.667 24.3333L129.333 24.6667L128.667 24.3333M171 24L172 25L171 24M283 24L284 25L283 24M290 24L291 25L290 24z"/>
<path style="fill:#69644f; stroke:none;" d="M349 24L350 25L349 24M37 25L38 26L37 25z"/>
<path style="fill:#9b9169; stroke:none;" d="M38.6667 25.3333L39.3333 25.6667L38.6667 25.3333z"/>
<path style="fill:#fcdd58; stroke:none;" d="M40 25.4398C-11.253 33.6755 3.8814 123.984 57 111.1C72.3705 107.372 87.2494 95.9903 92.9344 81C94.9405 75.7102 98.3104 60.98 89.9807 59.4074C78.9606 57.3269 64.9832 63.0336 58.1443 71C54.156 75.6459 48.259 89.8007 39.3179 83.9684C34.6788 80.9422 38.3249 73.1097 41.2245 70.2276C47.7164 63.775 57.4819 60.9806 61.9722 52C70.8827 34.1791 56.9409 22.7176 40 25.4398z"/>
<path style="fill:#9b9169; stroke:none;" d="M53 25L54 26L53 25z"/>
<path style="fill:#69644f; stroke:none;" d="M54.6667 25.3333L55.3333 25.6667L54.6667 25.3333M124 25L125 26L124 25z"/>
<path style="fill:#9b9169; stroke:none;" d="M125 25L126 26L125 25z"/>
<path style="fill:#69644f; stroke:none;" d="M173 25L174 26L173 25z"/>
<path style="fill:#9b9169; stroke:none;" d="M356 25L357 26L356 25M34 26L35 27L34 26M57 26L58 27L57 26z"/>
<path style="fill:#69644f; stroke:none;" d="M93 26L94 27L93 26z"/>
<path style="fill:#9b9169; stroke:none;" d="M94 26L95 27L94 26M122 26L123 27L122 26z"/>
<path style="fill:#69644f; stroke:none;" d="M174 26L175 27L174 26M282 26L283 27L282 26z"/>
<path style="fill:#9b9169; stroke:none;" d="M289 26L290 27L289 26z"/>
<path style="fill:#69644f; stroke:none;" d="M348 26L349 27L348 26M31 27L32 28L31 27z"/>
<path style="fill:#9b9169; stroke:none;" d="M32 27L33 28L32 27M59 27L60 28L59 27z"/>
<path style="fill:#fcdd58; stroke:none;" d="M92 27L57 65C68.7634 59.5143 89.5143 38.7634 95 27L92 27z"/>
<path style="fill:#69644f; stroke:none;" d="M95.3333 27.6667L95.6667 28.3333L95.3333 27.6667M119 27L120 28L119 27z"/>
<path style="fill:#fcdd58; stroke:none;" d="M120 27L121 28L120 27M145 27L146 28L145 27z"/>
<path style="fill:#9b9169; stroke:none;" d="M146.667 27.3333L147.333 27.6667L146.667 27.3333z"/>
<path style="fill:#69644f; stroke:none;" d="M148 27L148 28L152 28L148 27M161 27L161 28L164 28L161 27z"/>
<path style="fill:#9b9169; stroke:none;" d="M164.667 27.3333L165.333 27.6667L164.667 27.3333z"/>
<path style="fill:#fcdd58; stroke:none;" d="M282 27L283 28L282 27z"/>
<path style="fill:#69644f; stroke:none;" d="M289 27L290 28L289 27z"/>
<path style="fill:#fcdd58; stroke:none;" d="M348 27L349 28L348 27z"/>
<path style="fill:#9b9169; stroke:none;" d="M355 27L356 28L355 27z"/>
<path style="fill:#69644f; stroke:none;" d="M29 28L30 29L29 28z"/>
<path style="fill:#9b9169; stroke:none;" d="M91 28L92 29L91 28z"/>
<path style="fill:#69644f; stroke:none;" d="M117 28L118 29L117 28z"/>
<path style="fill:#9b9169; stroke:none;" d="M118 28L119 29L118 28M139 28L140 29L139 28z"/>
<path style="fill:#69644f; stroke:none;" d="M140.667 28.3333L141.333 28.6667L140.667 28.3333M168 28L169 29L168 28z"/>
<path style="fill:#9b9169; stroke:none;" d="M175 28L176 29L175 28z"/>
<path style="fill:#69644f; stroke:none;" d="M347 28L348 29L347 28z"/>
<path style="fill:#9b9169; stroke:none;" d="M28 29L29 30L28 29M90 29L91 30L90 29M94 29L95 30L94 29M116 29L117 30L116 29z"/>
<path style="fill:#fcdd58; stroke:none;" d="M133 29L134 30L133 29z"/>
<path style="fill:#9b9169; stroke:none;" d="M134 29L135 30L134 29z"/>
<path style="fill:#69644f; stroke:none;" d="M135.667 29.3333L136.333 29.6667L135.667 29.3333z"/>
<path style="fill:#9b9169; stroke:none;" d="M168 29L169 30L168 29M281 29L282 30L281 29z"/>
<path style="fill:#69644f; stroke:none;" d="M288 29L289 30L288 29z"/>
<path style="fill:#9b9169; stroke:none;" d="M347 29L348 30L347 29M354 29L355 30L354 29z"/>
<path style="fill:#69644f; stroke:none;" d="M26 30L27 31L26 30z"/>
<path style="fill:#9b9169; stroke:none;" d="M47 30L48 31L47 30z"/>
<path style="fill:#69644f; stroke:none;" d="M48 30L49 31L48 30z"/>
<path style="fill:#020202; stroke:none;" d="M49.0008 30.6273C38.1026 32.3365 34.7773 53.0052 48 51.7423C59.9974 50.5964 62.2227 28.5537 49.0008 30.6273z"/>
<path style="fill:#69644f; stroke:none;" d="M52 30L53 31L52 30z"/>
<path style="fill:#9b9169; stroke:none;" d="M53 30L54 31L53 30M62 30L63 31L62 30M89 30L90 31L89 30M93 30L94 31L93 30M115 30L116 31L115 30M130 30L131 31L130 30z"/>
<path style="fill:#69644f; stroke:none;" d="M131 30L132 31L131 30M166 30L167 31L166 30M354 30L355 31L354 30M45 31L46 32L45 31z"/>
<path style="fill:#9b9169; stroke:none;" d="M88 31L89 32L88 31M92 31L93 32L92 31M127 31L128 32L127 31z"/>
<path style="fill:#69644f; stroke:none;" d="M128 31L129 32L128 31z"/>
<path style="fill:#9b9169; stroke:none;" d="M165 31L166 32L165 31z"/>
<path style="fill:#fcdd58; stroke:none;" d="M175 31L176 32L175 31z"/>
<path style="fill:#69644f; stroke:none;" d="M280 31L281 32L280 31z"/>
<path style="fill:#9b9169; stroke:none;" d="M287 31L288 32L287 31M346 31L347 32L346 31M353 31L354 32L353 31z"/>
<path style="fill:#69644f; stroke:none;" d="M23 32L24 33L23 32z"/>
<path style="fill:#9b9169; stroke:none;" d="M56 32L57 33L56 32z"/>
<path style="fill:#69644f; stroke:none;" d="M63 32L64 33L63 32z"/>
<path style="fill:#9b9169; stroke:none;" d="M87 32L88 33L87 32M91 32L92 33L91 32M113 32L114 33L113 32M124 32L125 33L124 32z"/>
<path style="fill:#69644f; stroke:none;" d="M125 32L126 33L125 32z"/>
<path style="fill:#9b9169; stroke:none;" d="M163 32L164 33L163 32z"/>
<path style="fill:#69644f; stroke:none;" d="M175 32L176 33L175 32z"/>
<path style="fill:#9b9169; stroke:none;" d="M280 32L281 33L280 32z"/>
<path style="fill:#69644f; stroke:none;" d="M287 32L288 33L287 32M353 32L362 34L362 33L353 32M22 33L23 34L22 33M48.6667 33.3333L49.3333 33.6667L48.6667 33.3333z"/>
<path style="fill:#9b9169; stroke:none;" d="M50 33L51 34L50 33z"/>
<path style="fill:#69644f; stroke:none;" d="M51.6667 33.3333L52.3333 33.6667L51.6667 33.3333z"/>
<path style="fill:#9b9169; stroke:none;" d="M63.3333 33.6667L63.6667 34.3333L63.3333 33.6667M86 33L87 34L86 33M90 33L91 34L90 33z"/>
<path style="fill:#69644f; stroke:none;" d="M112 33L113 34L112 33z"/>
<path style="fill:#9b9169; stroke:none;" d="M122 33L123 34L122 33z"/>
<path style="fill:#69644f; stroke:none;" d="M123 33L124 34L123 33M161 33L162 34L161 33M174 33L175 34L174 33z"/>
<path style="fill:#9b9169; stroke:none;" d="M345 33L346 34L345 33z"/>
<path style="fill:#69644f; stroke:none;" d="M21 34L22 35L21 34M46 34L47 35L46 34z"/>
<path style="fill:#fcdd58; stroke:none;" d="M47.0548 35.0324C40.5462 38.4266 41.6537 51.8699 49.9568 47.8017C56.9058 44.397 55.7247 30.5111 47.0548 35.0324z"/>
<path style="fill:#9b9169; stroke:none;" d="M53 34L54 35L53 34z"/>
<path style="fill:#69644f; stroke:none;" d="M57 34L58 35L57 34z"/>
<path style="fill:#9b9169; stroke:none;" d="M85 34L86 35L85 34M89 34L90 35L89 34z"/>
<path style="fill:#69644f; stroke:none;" d="M121 34L122 35L121 34z"/>
<path style="fill:#fcdd58; stroke:none;" d="M160 34L161 35L160 34z"/>
<path style="fill:#69644f; stroke:none;" d="M173 34L174 35L173 34M279 34L280 35L279 34z"/>
<path style="fill:#9b9169; stroke:none;" d="M286 34L287 35L286 34z"/>
<path style="fill:#69644f; stroke:none;" d="M331 34L331 35L334 35L331 34z"/>
<path style="fill:#9b9169; stroke:none;" d="M334 34L334 35L337 35L334 34z"/>
<path style="fill:#fcdd58; stroke:none;" d="M337 34L338 35L337 34M368 34L369 35L368 34z"/>
<path style="fill:#9b9169; stroke:none;" d="M369.667 34.3333L370.333 34.6667L369.667 34.3333z"/>
<path style="fill:#69644f; stroke:none;" d="M371.667 34.3333L372.333 34.6667L371.667 34.3333M20 35L21 36L20 35M41 35L42 36L41 35z"/>
<path style="fill:#9b9169; stroke:none;" d="M45 35L46 36L45 35M54 35L55 36L54 35M84 35L85 36L84 35M88 35L89 36L88 35z"/>
<path style="fill:#fcdd58; stroke:none;" d="M119 35L120 36L119 35z"/>
<path style="fill:#69644f; stroke:none;" d="M158 35L159 36L158 35z"/>
<path style="fill:#9b9169; stroke:none;" d="M171 35L172 36L171 35z"/>
<path style="fill:#69644f; stroke:none;" d="M322.667 35.3333L323.333 35.6667L322.667 35.3333z"/>
<path style="fill:#9b9169; stroke:none;" d="M324.667 35.3333L325.333 35.6667L324.667 35.3333z"/>
<path style="fill:#fcdd58; stroke:none;" d="M326 35L327 36L326 35z"/>
<path style="fill:#9b9169; stroke:none;" d="M375.667 35.3333L376.333 35.6667L375.667 35.3333z"/>
<path style="fill:#69644f; stroke:none;" d="M377 35L378 36L377 35M19 36L20 37L19 36M40 36L41 37L40 36M44 36L45 37L44 36M58 36L58 39L59 39L58 36z"/>
<path style="fill:#9b9169; stroke:none;" d="M83 36L84 37L83 36M87 36L88 37L87 36M112 36L113 37L112 36z"/>
<path style="fill:#fcdd58; stroke:none;" d="M118 36L119 37L118 36z"/>
<path style="fill:#9b9169; stroke:none;" d="M157 36L158 37L157 36M169 36L170 37L169 36z"/>
<path style="fill:#69644f; stroke:none;" d="M278 36L279 37L278 36z"/>
<path style="fill:#fcdd58; stroke:none;" d="M285 36L286 37L285 36z"/>
<path style="fill:#69644f; stroke:none;" d="M315.667 36.3333L316.333 36.6667L315.667 36.3333z"/>
<path style="fill:#9b9169; stroke:none;" d="M317.667 36.3333L318.333 36.6667L317.667 36.3333M379 36L380 37L379 36z"/>
<path style="fill:#69644f; stroke:none;" d="M380 36L381 37L380 36M18 37L19 38L18 37M43 37L44 38L43 37M55.3333 37.6667L55.6667 38.3333L55.3333 37.6667z"/>
<path style="fill:#9b9169; stroke:none;" d="M82 37L83 38L82 37M86 37L87 38L86 37z"/>
<path style="fill:#fcdd58; stroke:none;" d="M113 37L114 38L113 37z"/>
<path style="fill:#69644f; stroke:none;" d="M155 37L156 38L155 37z"/>
<path style="fill:#fcdd58; stroke:none;" d="M167 37L168 38L167 37z"/>
<path style="fill:#69644f; stroke:none;" d="M168 37L169 38L168 37z"/>
<path style="fill:#9b9169; stroke:none;" d="M278 37L279 38L278 37z"/>
<path style="fill:#69644f; stroke:none;" d="M285 37L286 38L285 37M309.667 37.3333L310.333 37.6667L309.667 37.3333z"/>
<path style="fill:#9b9169; stroke:none;" d="M311.667 37.3333L312.333 37.6667L311.667 37.3333M382 37L383 38L382 37z"/>
<path style="fill:#69644f; stroke:none;" d="M383 37L384 38L383 37z"/>
<path style="fill:#9b9169; stroke:none;" d="M39 38L40 39L39 38M63 38L63 42L64 42L63 38M81 38L82 39L81 38M85 38L86 39L85 38M114 38L115 39L114 38z"/>
<path style="fill:#69644f; stroke:none;" d="M117 38L118 39L117 38z"/>
<path style="fill:#9b9169; stroke:none;" d="M154 38L155 39L154 38z"/>
<path style="fill:#69644f; stroke:none;" d="M166 38L167 39L166 38z"/>
<path style="fill:#9b9169; stroke:none;" d="M384 38L385 39L384 38z"/>
<path style="fill:#69644f; stroke:none;" d="M385 38L386 39L385 38M39 39L40 40L39 39M42 39L43 40L42 39z"/>
<path style="fill:#9b9169; stroke:none;" d="M55 39L56 40L55 39M80 39L81 40L80 39M84 39L85 40L84 39z"/>
<path style="fill:#69644f; stroke:none;" d="M152 39L153 40L152 39z"/>
<path style="fill:#9b9169; stroke:none;" d="M164 39L165 40L164 39z"/>
<path style="fill:#69644f; stroke:none;" d="M277 39L278 40L277 39z"/>
<path style="fill:#9b9169; stroke:none;" d="M284 39L285 40L284 39z"/>
<path style="fill:#69644f; stroke:none;" d="M350 39L350 40L359 40L350 39z"/>
<path style="fill:#9b9169; stroke:none;" d="M359 39L359 40L366 40L359 39z"/>
<path style="fill:#fcdd58; stroke:none;" d="M366 39L367 40L366 39z"/>
<path style="fill:#9b9169; stroke:none;" d="M386 39L387 40L386 39M16 40L17 41L16 40M42 40L43 41L42 40z"/>
<path style="fill:#69644f; stroke:none;" d="M55.3333 40.6667L55.6667 41.3333L55.3333 40.6667M58.3333 40.6667L58.6667 41.3333L58.3333 40.6667z"/>
<path style="fill:#9b9169; stroke:none;" d="M79 40L80 41L79 40M83 40L84 41L83 40M151 40L152 41L151 40z"/>
<path style="fill:#69644f; stroke:none;" d="M163 40L164 41L163 40z"/>
<path style="fill:#9b9169; stroke:none;" d="M277 40L278 41L277 40z"/>
<path style="fill:#69644f; stroke:none;" d="M284 40L285 41L284 40M308 40L309 41L308 40z"/>
<path style="fill:#fcdd58; stroke:none;" d="M330 40L331 41L330 40z"/>
<path style="fill:#9b9169; stroke:none;" d="M331.667 40.3333L332.333 40.6667L331.667 40.3333z"/>
<path style="fill:#69644f; stroke:none;" d="M333 40L333 41L336 41L333 40z"/>
<path style="fill:#9b9169; stroke:none;" d="M342 40L343 41L342 40M349 40L350 41L349 40z"/>
<path style="fill:#69644f; stroke:none;" d="M372.667 40.3333L373.333 40.6667L372.667 40.3333z"/>
<path style="fill:#9b9169; stroke:none;" d="M374.667 40.3333L375.333 40.6667L374.667 40.3333z"/>
<path style="fill:#fcdd58; stroke:none;" d="M376 40L377 41L376 40z"/>
<path style="fill:#9b9169; stroke:none;" d="M387 40L388 41L387 40z"/>
<path style="fill:#69644f; stroke:none;" d="M15 41L16 42L15 41z"/>
<path style="fill:#9b9169; stroke:none;" d="M78 41L79 42L78 41M82 41L83 42L82 41z"/>
<path style="fill:#69644f; stroke:none;" d="M149 41L150 42L149 41z"/>
<path style="fill:#9b9169; stroke:none;" d="M161 41L162 42L161 41M309 41L310 42L309 41z"/>
<path style="fill:#fcdd58; stroke:none;" d="M322 41L323 42L322 41z"/>
<path style="fill:#9b9169; stroke:none;" d="M323.667 41.3333L324.333 41.6667L323.667 41.3333z"/>
<path style="fill:#69644f; stroke:none;" d="M325.667 41.3333L326.333 41.6667L325.667 41.3333M379 41L380 42L379 41z"/>
<path style="fill:#9b9169; stroke:none;" d="M380 41L381 42L380 41z"/>
<path style="fill:#69644f; stroke:none;" d="M388 41L389 42L388 41z"/>
<path style="fill:#9b9169; stroke:none;" d="M38 42L38 45L39 45L38 42M58 42L59 43L58 42z"/>
<path style="fill:#69644f; stroke:none;" d="M63 42L63 52L64 52L63 42z"/>
<path style="fill:#9b9169; stroke:none;" d="M77 42L78 43L77 42M81 42L82 43L81 42M148 42L149 43L148 42z"/>
<path style="fill:#69644f; stroke:none;" d="M160 42L161 43L160 42M276 42L277 43L276 42z"/>
<path style="fill:#9b9169; stroke:none;" d="M283 42L284 43L283 42M310 42L311 43L310 42z"/>
<path style="fill:#fcdd58; stroke:none;" d="M316 42L317 43L316 42z"/>
<path style="fill:#9b9169; stroke:none;" d="M317 42L318 43L317 42z"/>
<path style="fill:#69644f; stroke:none;" d="M318.667 42.3333L319.333 42.6667L318.667 42.3333M341 42L342 43L341 42z"/>
<path style="fill:#9b9169; stroke:none;" d="M348 42L349 43L348 42z"/>
<path style="fill:#69644f; stroke:none;" d="M382 42L383 43L382 42z"/>
<path style="fill:#9b9169; stroke:none;" d="M383 42L384 43L383 42M388 42L389 43L388 42z"/>
<path style="fill:#69644f; stroke:none;" d="M14 43L15 44L14 43z"/>
<path style="fill:#9b9169; stroke:none;" d="M54 43L55 44L54 43M76 43L77 44L76 43M80 43L81 44L80 43z"/>
<path style="fill:#69644f; stroke:none;" d="M146 43L147 44L146 43z"/>
<path style="fill:#9b9169; stroke:none;" d="M158 43L159 44L158 43z"/>
<path style="fill:#fcdd58; stroke:none;" d="M276 43L277 44L276 43z"/>
<path style="fill:#69644f; stroke:none;" d="M312.667 43.3333L313.333 43.6667L312.667 43.3333M348 43L349 44L348 43z"/>
<path style="fill:#9b9169; stroke:none;" d="M385 43L386 44L385 43z"/>
<path style="fill:#69644f; stroke:none;" d="M388 43L389 44L388 43z"/>
<path style="fill:#9b9169; stroke:none;" d="M21 44L22 45L21 44z"/>
<path style="fill:#69644f; stroke:none;" d="M22 44L22 45L26 45L22 44z"/>
<path style="fill:#9b9169; stroke:none;" d="M26 44L27 45L26 44z"/>
<path style="fill:#69644f; stroke:none;" d="M57 44L58 45L57 44z"/>
<path style="fill:#9b9169; stroke:none;" d="M75 44L76 45L75 44M79 44L80 45L79 44M145 44L146 45L145 44z"/>
<path style="fill:#69644f; stroke:none;" d="M157 44L158 45L157 44z"/>
<path style="fill:#9b9169; stroke:none;" d="M282 44L283 45L282 44z"/>
<path style="fill:#69644f; stroke:none;" d="M340 44L341 45L340 44z"/>
<path style="fill:#9b9169; stroke:none;" d="M13 45L14 46L13 45M19 45L20 46L19 45z"/>
<path style="fill:#020202; stroke:none;" d="M20.1088 46.0278C11.5532 50.8261 19.5065 63.4906 27.8912 58.8202C36.5736 53.984 28.4912 41.3266 20.1088 46.0278z"/>
<path style="fill:#9b9169; stroke:none;" d="M28 45L29 46L28 45M42 45L43 46L42 45z"/>
<path style="fill:#69644f; stroke:none;" d="M53 45L54 46L53 45z"/>
<path style="fill:#9b9169; stroke:none;" d="M57 45L58 46L57 45M74 45L75 46L74 45M78 45L79 46L78 45z"/>
<path style="fill:#69644f; stroke:none;" d="M143 45L144 46L143 45z"/>
<path style="fill:#9b9169; stroke:none;" d="M155 45L156 46L155 45M275 45L276 46L275 45z"/>
<path style="fill:#69644f; stroke:none;" d="M282 45L283 46L282 45z"/>
<path style="fill:#9b9169; stroke:none;" d="M340 45L341 46L340 45z"/>
<path style="fill:#69644f; stroke:none;" d="M347 45L348 46L347 45M18 46L19 47L18 46M29 46L30 47L29 46M39 46L40 47L39 46M42 46L43 47L42 46z"/>
<path style="fill:#9b9169; stroke:none;" d="M52 46L53 47L52 46z"/>
<path style="fill:#69644f; stroke:none;" d="M56 46L57 47L56 46z"/>
<path style="fill:#9b9169; stroke:none;" d="M73 46L74 47L73 46M77 46L78 47L77 46z"/>
<path style="fill:#69644f; stroke:none;" d="M142 46L143 47L142 46M154 46L155 47L154 46M321 46L322 47L321 46z"/>
<path style="fill:#9b9169; stroke:none;" d="M12 47L13 48L12 47M17 47L18 48L17 47z"/>
<path style="fill:#69644f; stroke:none;" d="M23 47L23 48L26 48L23 47M30 47L31 48L30 47z"/>
<path style="fill:#9b9169; stroke:none;" d="M39 47L40 48L39 47M43 47L44 48L43 47z"/>
<path style="fill:#69644f; stroke:none;" d="M51 47L52 48L51 47z"/>
<path style="fill:#9b9169; stroke:none;" d="M72 47L73 48L72 47M76 47L77 48L76 47M141 47L142 48L141 47z"/>
<path style="fill:#69644f; stroke:none;" d="M274 47L275 48L274 47z"/>
<path style="fill:#9b9169; stroke:none;" d="M281 47L282 48L281 47z"/>
<path style="fill:#f6f6f6; stroke:none;" d="M320 47C318.516 51.4557 318.787 53.6133 323 56C325.039 51.66 324.978 48.5124 320 47z"/>
<path style="fill:#69644f; stroke:none;" d="M323 47L324 48L323 47M339 47L340 48L339 47z"/>
<path style="fill:#9b9169; stroke:none;" d="M346 47L347 48L346 47M21 48L22 49L21 48z"/>
<path style="fill:#fcdd58; stroke:none;" d="M22.314 48.7616C17.9721 50.7671 21.2151 57.9285 25.7253 56.1991C30.7733 54.2634 27.3814 46.421 22.314 48.7616z"/>
<path style="fill:#69644f; stroke:none;" d="M44 48L45 49L44 48z"/>
<path style="fill:#9b9169; stroke:none;" d="M49 48L50 49L49 48M71 48L72 49L71 48M75 48L76 49L75 48z"/>
<path style="fill:#69644f; stroke:none;" d="M139 48L140 49L139 48z"/>
<path style="fill:#9b9169; stroke:none;" d="M151 48L152 49L151 48M274 48L275 49L274 48z"/>
<path style="fill:#69644f; stroke:none;" d="M281 48L282 49L281 48z"/>
<path style="fill:#9b9169; stroke:none;" d="M319 48L320 49L319 48z"/>
<path style="fill:#69644f; stroke:none;" d="M324 48L325 49L324 48M11 49L12 50L11 49z"/>
<path style="fill:#9b9169; stroke:none;" d="M16 49L17 50L16 49z"/>
<path style="fill:#69644f; stroke:none;" d="M31 49L32 50L31 49z"/>
<path style="fill:#9b9169; stroke:none;" d="M70 49L71 50L70 49M74 49L75 50L74 49M138 49L139 50L138 49z"/>
<path style="fill:#69644f; stroke:none;" d="M150 49L151 50L150 49M338 49L339 50L338 49z"/>
<path style="fill:#9b9169; stroke:none;" d="M345 49L346 50L345 49z"/>
<path style="fill:#69644f; stroke:none;" d="M19 50L20 51L19 50M28 50L29 51L28 50M52 50L53 51L52 50z"/>
<path style="fill:#9b9169; stroke:none;" d="M69 50L70 51L69 50M73 50L74 51L73 50z"/>
<path style="fill:#fcdd58; stroke:none;" d="M137 50L138 51L137 50z"/>
<path style="fill:#9b9169; stroke:none;" d="M148 50L149 51L148 50z"/>
<path style="fill:#69644f; stroke:none;" d="M273 50L274 51L273 50z"/>
<path style="fill:#9b9169; stroke:none;" d="M280 50L281 51L280 50M318 50L319 51L318 50z"/>
<path style="fill:#69644f; stroke:none;" d="M325.333 50.6667L325.667 51.3333L325.333 50.6667z"/>
<path style="fill:#9b9169; stroke:none;" d="M338 50L339 51L338 50z"/>
<path style="fill:#69644f; stroke:none;" d="M345 50L346 51L345 50M10 51L11 52L10 51z"/>
<path style="fill:#9b9169; stroke:none;" d="M19 51L19 54L20 54L19 51z"/>
<path style="fill:#69644f; stroke:none;" d="M43 51L44 52L43 51M50 51L51 52L50 51z"/>
<path style="fill:#9b9169; stroke:none;" d="M51 51L52 52L51 51M68 51L69 52L68 51M72 51L73 52L72 51z"/>
<path style="fill:#69644f; stroke:none;" d="M135 51L136 52L135 51M147 51L148 52L147 51z"/>
<path style="fill:#9b9169; stroke:none;" d="M273 51L274 52L273 51z"/>
<path style="fill:#69644f; stroke:none;" d="M280 51L281 52L280 51z"/>
<path style="fill:#9b9169; stroke:none;" d="M10 52L11 53L10 52M32 52L33 53L32 52M45 52L45 53L49 53L45 52M62 52L63 53L62 52M67 52L68 53L67 52M71 52L72 53L71 52M134 52L135 53L134 52M337 52L338 53L337 52z"/>
<path style="fill:#69644f; stroke:none;" d="M344 52L345 53L344 52z"/>
<path style="fill:#9b9169; stroke:none;" d="M28 53L29 54L28 53M61 53L62 54L61 53M66 53L67 54L66 53M70 53L71 54L70 53z"/>
<path style="fill:#69644f; stroke:none;" d="M132 53L133 54L132 53z"/>
<path style="fill:#9b9169; stroke:none;" d="M144 53L145 54L144 53z"/>
<path style="fill:#69644f; stroke:none;" d="M272 53L273 54L272 53z"/>
<path style="fill:#9b9169; stroke:none;" d="M279 53L280 54L279 53z"/>
<path style="fill:#69644f; stroke:none;" d="M318 53L319 54L318 53M324 53L325 54L324 53M16 54L17 55L16 54M19 54L20 55L19 54M28 54L29 55L28 54z"/>
<path style="fill:#9b9169; stroke:none;" d="M60 54L61 55L60 54M65 54L66 55L65 54M69 54L70 55L69 54z"/>
<path style="fill:#69644f; stroke:none;" d="M131 54L132 55L131 54M143 54L144 55L143 54z"/>
<path style="fill:#9b9169; stroke:none;" d="M272 54L273 55L272 54M319 54L320 55L319 54z"/>
<path style="fill:#69644f; stroke:none;" d="M336 54L337 55L336 54z"/>
<path style="fill:#9b9169; stroke:none;" d="M343 54L344 55L343 54z"/>
<path style="fill:#69644f; stroke:none;" d="M9 55L10 56L9 55z"/>
<path style="fill:#9b9169; stroke:none;" d="M16 55L17 56L16 55M20 55L21 56L20 55z"/>
<path style="fill:#69644f; stroke:none;" d="M31 55L32 56L31 55z"/>
<path style="fill:#9b9169; stroke:none;" d="M59 55L60 56L59 55M64 55L65 56L64 55M68 55L69 56L68 55M130 55L131 56L130 55z"/>
<path style="fill:#fcdd58; stroke:none;" d="M141 55L142 56L141 55z"/>
<path style="fill:#69644f; stroke:none;" d="M320 55L321 56L320 55z"/>
<path style="fill:#fcdd58; stroke:none;" d="M321 55L322 56L321 55z"/>
<path style="fill:#69644f; stroke:none;" d="M323 55L324 56L323 55z"/>
<path style="fill:#9b9169; stroke:none;" d="M336 55L337 56L336 55z"/>
<path style="fill:#69644f; stroke:none;" d="M343 55L344 56L343 55z"/>
<path style="fill:#9b9169; stroke:none;" d="M9 56L10 57L9 56z"/>
<path style="fill:#69644f; stroke:none;" d="M21 56L22 57L21 56z"/>
<path style="fill:#9b9169; stroke:none;" d="M26 56L27 57L26 56M58 56L59 57L58 56M63 56L64 57L63 56M67 56L68 57L67 56z"/>
<path style="fill:#69644f; stroke:none;" d="M128 56L129 57L128 56z"/>
<path style="fill:#9b9169; stroke:none;" d="M140 56L141 57L140 56z"/>
<path style="fill:#69644f; stroke:none;" d="M271 56L272 57L271 56z"/>
<path style="fill:#9b9169; stroke:none;" d="M278 56L279 57L278 56z"/>
<path style="fill:#69644f; stroke:none;" d="M23.6667 57.3333L24.3333 57.6667L23.6667 57.3333z"/>
<path style="fill:#9b9169; stroke:none;" d="M30 57L31 58L30 57M57 57L58 58L57 57M62 57L63 58L62 57M66 57L67 58L66 57z"/>
<path style="fill:#69644f; stroke:none;" d="M127 57L128 58L127 57M139 57L140 58L139 57z"/>
<path style="fill:#9b9169; stroke:none;" d="M240 57L241 58L240 57z"/>
<path style="fill:#69644f; stroke:none;" d="M241 57L242 58L241 57M254 57L255 58L254 57z"/>
<path style="fill:#fcdd58; stroke:none;" d="M255 57L256 58L255 57z"/>
<path style="fill:#f6f6f6; stroke:none;" d="M244 68L243 68C243.872 63.2104 244.268 59.5993 239 58C235.946 71.2006 230.618 84.146 226.333 97C224.59 102.228 220.94 108.85 228 111L242 80C251.54 86.8346 264.177 74.5117 262.836 64.0039C261.695 55.0557 252.673 57.834 248.108 62.1836C246.279 63.9267 245.147 65.7947 244 68z"/>
<path style="fill:#9b9169; stroke:none;" d="M258 57L259 58L258 57z"/>
<path style="fill:#69644f; stroke:none;" d="M259 57L260 58L259 57z"/>
<path style="fill:#fcdd58; stroke:none;" d="M271 57L272 58L271 57z"/>
<path style="fill:#69644f; stroke:none;" d="M335 57L336 58L335 57z"/>
<path style="fill:#9b9169; stroke:none;" d="M342 57L343 58L342 57z"/>
<path style="fill:#69644f; stroke:none;" d="M349 57L350 58L349 57z"/>
<path style="fill:#9b9169; stroke:none;" d="M350 57L350 58L353 58L350 57M18 58L19 59L18 58M29 58L30 59L29 58M56 58L57 59L56 58M61 58L62 59L61 58M65 58L66 59L65 58M126 58L127 59L126 58M137 58L138 59L137 58M242 58L243 59L242 58z"/>
<path style="fill:#69644f; stroke:none;" d="M252 58L253 59L252 58z"/>
<path style="fill:#9b9169; stroke:none;" d="M260 58L261 59L260 58z"/>
<path style="fill:#fcdd58; stroke:none;" d="M277 58L278 59L277 58z"/>
<path style="fill:#9b9169; stroke:none;" d="M335 58L336 59L335 58z"/>
<path style="fill:#f6f6f6; stroke:none;" d="M352 73C333.939 83.8636 361.941 95.4975 358 75C362.643 73.2434 369.862 70.698 369 65L354 70L352 63L356 62C353.914 58.5996 347.994 55.9971 347.283 62.0586C346.801 66.1683 349.995 69.7328 352 73z"/>
<path style="fill:#69644f; stroke:none;" d="M354 58L355 59L354 58M8.33333 59.6667L8.66667 60.3333L8.33333 59.6667M20 59L21 60L20 59M27 59L28 60L27 59z"/>
<path style="fill:#9b9169; stroke:none;" d="M28 59L29 60L28 59M55 59L56 60L55 59M60 59L61 60L60 59M64 59L65 60L64 59z"/>
<path style="fill:#69644f; stroke:none;" d="M84.6667 59.3333L85.3333 59.6667L84.6667 59.3333z"/>
<path style="fill:#9b9169; stroke:none;" d="M86 59L87 60L86 59z"/>
<path style="fill:#69644f; stroke:none;" d="M92 59L93 60L92 59M136 59L137 60L136 59z"/>
<path style="fill:#9b9169; stroke:none;" d="M167 59L168 60L167 59z"/>
<path style="fill:#69644f; stroke:none;" d="M170 59L171 60L170 59M210 59L211 60L210 59z"/>
<path style="fill:#9b9169; stroke:none;" d="M211 59L212 60L211 59z"/>
<path style="fill:#69644f; stroke:none;" d="M212 59L213 60L212 59M238 59L239 60L238 59z"/>
<path style="fill:#9b9169; stroke:none;" d="M243 59L244 60L243 59M251 59L252 60L251 59M261 59L262 60L261 59M270 59L271 60L270 59z"/>
<path style="fill:#69644f; stroke:none;" d="M277 59L278 60L277 59M300 59L301 60L300 59z"/>
<path style="fill:#9b9169; stroke:none;" d="M303 59L304 60L303 59z"/>
<path style="fill:#fcdd58; stroke:none;" d="M341 59L342 60L341 59z"/>
<path style="fill:#9b9169; stroke:none;" d="M347 59L348 60L347 59M22 60L23 61L22 60z"/>
<path style="fill:#69644f; stroke:none;" d="M23.6667 60.3333L24.3333 60.6667L23.6667 60.3333z"/>
<path style="fill:#9b9169; stroke:none;" d="M25 60L26 61L25 60M54 60L55 61L54 60M59 60L60 61L59 60M63 60L64 61L63 60M68 60L69 61L68 60z"/>
<path style="fill:#69644f; stroke:none;" d="M69 60L70 61L69 60M80 60L81 61L80 60z"/>
<path style="fill:#9b9169; stroke:none;" d="M81 60L82 61L81 60M93 60L94 61L93 60z"/>
<path style="fill:#69644f; stroke:none;" d="M123 60L124 61L123 60M135 60L136 61L135 60M165 60L166 61L165 60M171 60L172 61L171 60z"/>
<path style="fill:#9b9169; stroke:none;" d="M209 60L210 61L209 60z"/>
<path style="fill:#f6f6f6; stroke:none;" d="M180 79C182.497 74.6 187.341 74.1344 190.681 70.6096C194.098 67.0046 192.201 61.8407 186.995 62.2832C179.557 62.9155 168.906 76.9743 176.434 83.2539C184.324 89.8363 202.116 74.2567 209 71C207.382 74.1853 199.195 78.9972 200.497 82.6921C202.277 87.742 210.159 80.5143 213 80.5702C217.017 80.6493 219.981 84.6908 223.981 85.1335C234.138 86.2575 221.561 77.1905 219 76C221.611 72.3707 228.376 69.0065 229.654 64.885C232.202 56.6691 215.358 68.1544 214 69L212 60L203.856 67.9066L180 79z"/>
<path style="fill:#fcdd58; stroke:none;" d="M212 60L213 61L212 60z"/>
<path style="fill:#69644f; stroke:none;" d="M225 60L226 61L225 60z"/>
<path style="fill:#fcdd58; stroke:none;" d="M226.667 60.3333L227.333 60.6667L226.667 60.3333z"/>
<path style="fill:#69644f; stroke:none;" d="M228 60L229 61L228 60z"/>
<path style="fill:#9b9169; stroke:none;" d="M238 60L239 61L238 60z"/>
<path style="fill:#69644f; stroke:none;" d="M244 60L245 61L244 60M262 60L263 61L262 60z"/>
<path style="fill:#fcdd58; stroke:none;" d="M299 60L300 61L299 60z"/>
<path style="fill:#69644f; stroke:none;" d="M334 60L335 61L334 60M341 60L342 61L341 60z"/>
<path style="fill:#9b9169; stroke:none;" d="M355 60L356 61L355 60M8.33333 61.6667L8.66667 62.3333L8.33333 61.6667M53 61L54 62L53 61M58 61L59 62L58 61M62 61L63 62L62 61M67 61L68 62L67 61M71.6667 61.3333L72.3333 61.6667L71.6667 61.3333z"/>
<path style="fill:#69644f; stroke:none;" d="M73 61L73 62L76 62L73 61z"/>
<path style="fill:#9b9169; stroke:none;" d="M76.6667 61.3333L77.3333 61.6667L76.6667 61.3333z"/>
<path style="fill:#69644f; stroke:none;" d="M94 61L95 62L94 61z"/>
<path style="fill:#9b9169; stroke:none;" d="M122 61L123 62L122 61M133 61L134 62L133 61M164 61L165 62L164 61z"/>
<path style="fill:#69644f; stroke:none;" d="M172 61L173 62L172 61M185 61L186 62L185 61z"/>
<path style="fill:#9b9169; stroke:none;" d="M186 61L186 62L190 62L186 61M224 61L225 62L224 61M229 61L230 62L229 61M244.333 61.6667L244.667 62.3333L244.333 61.6667M276 61L277 62L276 61z"/>
<path style="fill:#69644f; stroke:none;" d="M297 61L298 62L297 61z"/>
<path style="fill:#9b9169; stroke:none;" d="M305 61L306 62L305 61z"/>
<path style="fill:#69644f; stroke:none;" d="M313 61L314 62L313 61z"/>
<path style="fill:#9b9169; stroke:none;" d="M316 61L317 62L316 61M334 61L335 62L334 61z"/>
<path style="fill:#69644f; stroke:none;" d="M346 61L346 64L347 64L346 61z"/>
<path style="fill:#9b9169; stroke:none;" d="M52 62L53 63L52 62M57 62L58 63L57 62M61 62L62 63L61 62M66 62L67 63L66 62M121 62L122 63L121 62z"/>
<path style="fill:#69644f; stroke:none;" d="M132 62L133 63L132 62M162 62L163 63L162 62z"/>
<path style="fill:#9b9169; stroke:none;" d="M172 62L172 65L173 65L172 62z"/>
<path style="fill:#69644f; stroke:none;" d="M183 62L184 63L183 62z"/>
<path style="fill:#fcdd58; stroke:none;" d="M184 62L185 63L184 62z"/>
<path style="fill:#69644f; stroke:none;" d="M191 62L192 63L191 62z"/>
<path style="fill:#9b9169; stroke:none;" d="M207 62L208 63L207 62z"/>
<path style="fill:#fcdd58; stroke:none;" d="M223 62L224 63L223 62z"/>
<path style="fill:#9b9169; stroke:none;" d="M230 62L231 63L230 62z"/>
<path style="fill:#69644f; stroke:none;" d="M237 62L238 63L237 62z"/>
<path style="fill:#9b9169; stroke:none;" d="M269 62L270 63L269 62z"/>
<path style="fill:#69644f; stroke:none;" d="M276 62L277 63L276 62z"/>
<path style="fill:#9b9169; stroke:none;" d="M296 62L297 63L296 62M340 62L341 63L340 62z"/>
<path style="fill:#69644f; stroke:none;" d="M355 62L356 63L355 62z"/>
<path style="fill:#9b9169; stroke:none;" d="M20 63L21 64L20 63M51 63L52 64L51 63M56 63L57 64L56 63M60 63L61 64L60 63M65 63L66 64L65 63z"/>
<path style="fill:#69644f; stroke:none;" d="M119 63L120 64L119 63M131 63L132 64L131 63M161 63L162 64L161 63z"/>
<path style="fill:#9b9169; stroke:none;" d="M182 63L183 64L182 63M192 63L193 64L192 63z"/>
<path style="fill:#69644f; stroke:none;" d="M221 63L222 64L221 63z"/>
<path style="fill:#9b9169; stroke:none;" d="M237 63L238 64L237 63z"/>
<path style="fill:#69644f; stroke:none;" d="M244 63L245 64L244 63M263 63L264 64L263 63z"/>
<path style="fill:#9b9169; stroke:none;" d="M295 63L296 64L295 63z"/>
<path style="fill:#69644f; stroke:none;" d="M306 63L307 64L306 63z"/>
<path style="fill:#9b9169; stroke:none;" d="M312 63L313 64L312 63M318 63L319 64L318 63z"/>
<path style="fill:#69644f; stroke:none;" d="M333 63L334 64L333 63M340 63L341 64L340 63z"/>
<path style="fill:#9b9169; stroke:none;" d="M352 63L353 64L352 63z"/>
<path style="fill:#69644f; stroke:none;" d="M17 64L18 65L17 64z"/>
<path style="fill:#020202; stroke:none;" d="M18.044 64.7577C9.23851 68.0677 13.8782 82.356 22.9815 79.2176C32.5364 75.9235 27.5069 61.2006 18.044 64.7577z"/>
<path style="fill:#69644f; stroke:none;" d="M23 64L24 65L23 64z"/>
<path style="fill:#9b9169; stroke:none;" d="M24 64L25 65L24 64M50 64L51 65L50 64M59 64L60 65L59 64M64 64L65 65L64 64z"/>
<path style="fill:#69644f; stroke:none;" d="M118 64L119 65L118 64z"/>
<path style="fill:#9b9169; stroke:none;" d="M129 64L130 65L129 64z"/>
<path style="fill:#69644f; stroke:none;" d="M160 64L161 65L160 64z"/>
<path style="fill:#9b9169; stroke:none;" d="M181 64L182 65L181 64z"/>
<path style="fill:#69644f; stroke:none;" d="M193 64L194 65L193 64z"/>
<path style="fill:#9b9169; stroke:none;" d="M220 64L221 65L220 64z"/>
<path style="fill:#69644f; stroke:none;" d="M231 64L232 65L231 64M256 64L257 65L256 64z"/>
<path style="fill:#9b9169; stroke:none;" d="M257 64L258 65L257 64M263 64L264 65L263 64M275 64L276 65L275 64M294 64L295 65L294 64z"/>
<path style="fill:#69644f; stroke:none;" d="M311 64L312 65L311 64z"/>
<path style="fill:#9b9169; stroke:none;" d="M333 64L334 65L333 64z"/>
<path style="fill:#69644f; stroke:none;" d="M352.333 64.6667L352.667 65.3333L352.333 64.6667M25 65L26 66L25 65z"/>
<path style="fill:#9b9169; stroke:none;" d="M49 65L50 66L49 65M58 65L59 66L58 65M63 65L64 66L63 65z"/>
<path style="fill:#69644f; stroke:none;" d="M95 65L95 73L96 73L95 65z"/>
<path style="fill:#9b9169; stroke:none;" d="M117 65L118 66L117 65z"/>
<path style="fill:#69644f; stroke:none;" d="M128 65L129 66L128 65M159 65L160 66L159 65z"/>
<path style="fill:#fcdd58; stroke:none;" d="M172 65L172 68L173 68L172 65z"/>
<path style="fill:#9b9169; stroke:none;" d="M193 65L193 68L194 68L193 65z"/>
<path style="fill:#69644f; stroke:none;" d="M213 65L214 66L213 65z"/>
<path style="fill:#9b9169; stroke:none;" d="M219 65L220 66L219 65M230 65L231 66L230 65z"/>
<path style="fill:#69644f; stroke:none;" d="M236 65L237 66L236 65z"/>
<path style="fill:#9b9169; stroke:none;" d="M243 65L243 68L244 68L243 65z"/>
<path style="fill:#020202; stroke:none;" d="M246 77L257 65L246 77z"/>
<path style="fill:#69644f; stroke:none;" d="M263.333 65.6667L263.667 66.3333L263.333 65.6667z"/>
<path style="fill:#9b9169; stroke:none;" d="M268 65L269 66L268 65z"/>
<path style="fill:#69644f; stroke:none;" d="M275 65L276 66L275 65z"/>
<path style="fill:#9b9169; stroke:none;" d="M293 65L294 66L293 65z"/>
<path style="fill:#69644f; stroke:none;" d="M306 65L306 70L307 70L306 65z"/>
<path style="fill:#9b9169; stroke:none;" d="M339 65L340 66L339 65z"/>
<path style="fill:#69644f; stroke:none;" d="M365 65L366 66L365 65z"/>
<path style="fill:#9b9169; stroke:none;" d="M366 65L367 66L366 65z"/>
<path style="fill:#69644f; stroke:none;" d="M369 65L370 66L369 65z"/>
<path style="fill:#9b9169; stroke:none;" d="M48 66L49 67L48 66z"/>
<path style="fill:#fcdd58; stroke:none;" d="M53 66L52 69L53 70L56 69L53 66z"/>
<path style="fill:#69644f; stroke:none;" d="M54 66L55 67L54 66z"/>
<path style="fill:#9b9169; stroke:none;" d="M62 66L63 67L62 66z"/>
<path style="fill:#fcdd58; stroke:none;" d="M116 66L117 67L116 66z"/>
<path style="fill:#69644f; stroke:none;" d="M127 66L128 67L127 66z"/>
<path style="fill:#9b9169; stroke:none;" d="M206 66L207 67L206 66M213 66L214 67L213 66z"/>
<path style="fill:#69644f; stroke:none;" d="M217 66L218 67L217 66M229 66L230 67L229 66z"/>
<path style="fill:#9b9169; stroke:none;" d="M236 66L237 67L236 66z"/>
<path style="fill:#69644f; stroke:none;" d="M243 66L244 67L243 66M256 66L257 67L256 66z"/>
<path style="fill:#fcdd58; stroke:none;" d="M268 66L269 67L268 66z"/>
<path style="fill:#9b9169; stroke:none;" d="M292 66L293 67L292 66z"/>
<path style="fill:#69644f; stroke:none;" d="M310 66L311 67L310 66M318 66L319 67L318 66z"/>
<path style="fill:#9b9169; stroke:none;" d="M332 66L333 67L332 66z"/>
<path style="fill:#69644f; stroke:none;" d="M339 66L340 67L339 66M347 66L348 67L347 66z"/>
<path style="fill:#9b9169; stroke:none;" d="M352 66L353 67L352 66z"/>
<path style="fill:#69644f; stroke:none;" d="M362 66L363 67L362 66z"/>
<path style="fill:#9b9169; stroke:none;" d="M363 66L364 67L363 66z"/>
<path style="fill:#69644f; stroke:none;" d="M18 67L19 68L18 67z"/>
<path style="fill:#9b9169; stroke:none;" d="M19 67L20 68L19 67z"/>
<path style="fill:#fcdd58; stroke:none;" d="M20.0394 67.9707C14.6413 69.2133 16.5009 76.6851 21.8565 75.6235C26.6475 74.6737 24.8516 66.8629 20.0394 67.9707z"/>
<path style="fill:#9b9169; stroke:none;" d="M22 67L23 68L22 67z"/>
<path style="fill:#69644f; stroke:none;" d="M27 67L28 68L27 67z"/>
<path style="fill:#9b9169; stroke:none;" d="M44 67L45 68L44 67z"/>
<path style="fill:#69644f; stroke:none;" d="M45 67L45 68L48 68L45 67M55 67L56 68L55 67z"/>
<path style="fill:#9b9169; stroke:none;" d="M61 67L62 68L61 67z"/>
<path style="fill:#69644f; stroke:none;" d="M114 67L115 68L114 67z"/>
<path style="fill:#fcdd58; stroke:none;" d="M125 67L126 68L125 67z"/>
<path style="fill:#9b9169; stroke:none;" d="M178 67L179 68L178 67z"/>
<path style="fill:#69644f; stroke:none;" d="M204 67L205 68L204 67z"/>
<path style="fill:#9b9169; stroke:none;" d="M216 67L217 68L216 67z"/>
<path style="fill:#fcdd58; stroke:none;" d="M227 67L228 68L227 67M252 67L253 68L252 67z"/>
<path style="fill:#9b9169; stroke:none;" d="M274 67L275 68L274 67M291 67L292 68L291 67M348 67L349 68L348 67z"/>
<path style="fill:#69644f; stroke:none;" d="M359 67L360 68L359 67z"/>
<path style="fill:#9b9169; stroke:none;" d="M360 67L361 68L360 67z"/>
<path style="fill:#69644f; stroke:none;" d="M370.333 67.6667L370.667 68.3333L370.333 67.6667M13 68L14 69L13 68z"/>
<path style="fill:#9b9169; stroke:none;" d="M17 68L18 69L17 68z"/>
<path style="fill:#69644f; stroke:none;" d="M24 68L25 69L24 68M42 68L43 69L42 68M51 68L52 69L51 68z"/>
<path style="fill:#9b9169; stroke:none;" d="M60 68L61 69L60 68z"/>
<path style="fill:#69644f; stroke:none;" d="M113 68L114 69L113 68z"/>
<path style="fill:#9b9169; stroke:none;" d="M124 68L125 69L124 68M157 68L158 69L157 68M166.333 68.6667L166.667 69.3333L166.333 68.6667M177 68L178 69L177 68M203 68L204 69L203 68z"/>
<path style="fill:#69644f; stroke:none;" d="M214 68L215 69L214 68z"/>
<path style="fill:#9b9169; stroke:none;" d="M215 68L216 69L215 68M226 68L227 69L226 68z"/>
<path style="fill:#69644f; stroke:none;" d="M235 68L236 69L235 68z"/>
<path style="fill:#9b9169; stroke:none;" d="M251 68L252 69L251 68M255 68L256 69L255 68z"/>
<path style="fill:#69644f; stroke:none;" d="M267 68L268 69L267 68z"/>
<path style="fill:#9b9169; stroke:none;" d="M290 68L291 69L290 68z"/>
<path style="fill:#fcdd58; stroke:none;" d="M300 68L301 69L300 68z"/>
<path style="fill:#69644f; stroke:none;" d="M309 68L310 69L309 68M317 68L318 69L317 68M329 68L330 69L329 68z"/>
<path style="fill:#fcdd58; stroke:none;" d="M338 68L339 69L338 68z"/>
<path style="fill:#69644f; stroke:none;" d="M357 68L358 69L357 68M16 69L17 70L16 69M28.3333 69.6667L28.6667 70.3333L28.3333 69.6667M52 69L53 70L52 69z"/>
<path style="fill:#9b9169; stroke:none;" d="M59 69L60 70L59 69M112 69L113 70L112 69z"/>
<path style="fill:#69644f; stroke:none;" d="M123 69L124 70L123 69M156 69L157 70L156 69M165 69L166 70L165 69z"/>
<path style="fill:#fcdd58; stroke:none;" d="M172 69L173 70L172 69z"/>
<path style="fill:#69644f; stroke:none;" d="M176 69L177 70L176 69M192 69L193 70L192 69M201 69L202 70L201 69M225 69L226 70L225 69z"/>
<path style="fill:#9b9169; stroke:none;" d="M235 69L236 70L235 69z"/>
<path style="fill:#69644f; stroke:none;" d="M254 69L255 70L254 69M262 69L263 70L262 69z"/>
<path style="fill:#9b9169; stroke:none;" d="M267.333 69.6667L267.667 70.3333L267.333 69.6667z"/>
<path style="fill:#fcdd58; stroke:none;" d="M273 69L274 70L273 69z"/>
<path style="fill:#69644f; stroke:none;" d="M288 69L289 70L288 69z"/>
<path style="fill:#fcdd58; stroke:none;" d="M289 69L290 70L289 69z"/>
<path style="fill:#020202; stroke:none;" d="M299 69L295 77L296 77L299 69z"/>
<path style="fill:#fcdd58; stroke:none;" d="M309 69L310 70L309 69M316 69L317 70L316 69z"/>
<path style="fill:#9b9169; stroke:none;" d="M328 69L329 70L328 69M338 69L339 70L338 69z"/>
<path style="fill:#69644f; stroke:none;" d="M349 69L350 70L349 69z"/>
<path style="fill:#fcdd58; stroke:none;" d="M354 69L355 70L354 69z"/>
<path style="fill:#9b9169; stroke:none;" d="M355 69L356 70L355 69z"/>
<path style="fill:#69644f; stroke:none;" d="M369 69L370 70L369 69M25 70L26 71L25 70M40 70L41 71L40 70M45 70L45 71L49 71L45 70M53 70L54 71L53 70z"/>
<path style="fill:#9b9169; stroke:none;" d="M58 70L59 71L58 70z"/>
<path style="fill:#69644f; stroke:none;" d="M122 70L123 71L122 70z"/>
<path style="fill:#9b9169; stroke:none;" d="M164 70L163 72L164 70z"/>
<path style="fill:#020202; stroke:none;" d="M165 70L161 77L165 70z"/>
<path style="fill:#fcdd58; stroke:none;" d="M166 70L167 71L166 70z"/>
<path style="fill:#9b9169; stroke:none;" d="M172 70L173 71L172 70z"/>
<path style="fill:#69644f; stroke:none;" d="M191 70L192 71L191 70M199 70L200 71L199 70z"/>
<path style="fill:#fcdd58; stroke:none;" d="M223 70L224 71L223 70z"/>
<path style="fill:#9b9169; stroke:none;" d="M273 70L274 71L273 70M287 70L288 71L287 70z"/>
<path style="fill:#69644f; stroke:none;" d="M299 70L300 71L299 70M316 70L317 71L316 70z"/>
<path style="fill:#9b9169; stroke:none;" d="M326 70L327 71L326 70z"/>
<path style="fill:#69644f; stroke:none;" d="M350 70L351 71L350 70z"/>
<path style="fill:#fcdd58; stroke:none;" d="M366 70L367 71L366 70z"/>
<path style="fill:#69644f; stroke:none;" d="M367 70L368 71L367 70z"/>
<path style="fill:#9b9169; stroke:none;" d="M12.3333 71.6667L12.6667 72.3333L12.3333 71.6667M25.3333 71.6667L25.6667 72.3333L25.3333 71.6667z"/>
<path style="fill:#69644f; stroke:none;" d="M39 71L40 72L39 71M43 71L44 72L43 71z"/>
<path style="fill:#fcdd58; stroke:none;" d="M41 81C59.9715 80.1183 41.8817 62.0285 41 81z"/>
<path style="fill:#9b9169; stroke:none;" d="M57 71L58 72L57 71M77 71L78 72L77 71z"/>
<path style="fill:#69644f; stroke:none;" d="M78 71L78 72L82 72L78 71z"/>
<path style="fill:#9b9169; stroke:none;" d="M82 71L83 72L82 71z"/>
<path style="fill:#69644f; stroke:none;" d="M109 71L110 72L109 71z"/>
<path style="fill:#fcdd58; stroke:none;" d="M120 71L121 72L120 71z"/>
<path style="fill:#69644f; stroke:none;" d="M155 71L156 72L155 71M165 71L166 72L165 71M172.333 71.6667L172.667 72.3333L172.333 71.6667M175 71L176 72L175 71M190 71L191 72L190 71M197 71L198 72L197 71z"/>
<path style="fill:#9b9169; stroke:none;" d="M198 71L199 72L198 71z"/>
<path style="fill:#69644f; stroke:none;" d="M207 71L208 72L207 71z"/>
<path style="fill:#9b9169; stroke:none;" d="M208 71L209 72L208 71M222 71L223 72L222 71z"/>
<path style="fill:#69644f; stroke:none;" d="M234 71L235 72L234 71M249 71L250 72L249 71z"/>
<path style="fill:#9b9169; stroke:none;" d="M253 71L254 72L253 71M261 71L262 72L261 71z"/>
<path style="fill:#fcdd58; stroke:none;" d="M267 71L268 72L267 71z"/>
<path style="fill:#69644f; stroke:none;" d="M273 71L274 72L273 71z"/>
<path style="fill:#9b9169; stroke:none;" d="M285 71L286 72L285 71z"/>
<path style="fill:#69644f; stroke:none;" d="M297 71L298 72L297 71z"/>
<path style="fill:#9b9169; stroke:none;" d="M299 71L300 72L299 71M308 71L309 72L308 71z"/>
<path style="fill:#69644f; stroke:none;" d="M324 71L325 72L324 71z"/>
<path style="fill:#9b9169; stroke:none;" d="M351.333 71.6667L351.667 72.3333L351.333 71.6667M364 71L365 72L364 71z"/>
<path style="fill:#69644f; stroke:none;" d="M365 71L366 72L365 71z"/>
<path style="fill:#9b9169; stroke:none;" d="M56 72L57 73L56 72M75 72L76 73L75 72z"/>
<path style="fill:#020202; stroke:none;" d="M76.1088 73.0278C67.4272 77.895 75.4946 90.587 83.8665 85.8202C92.4182 80.9511 84.5189 68.3128 76.1088 73.0278z"/>
<path style="fill:#9b9169; stroke:none;" d="M84 72L85 73L84 72z"/>
<path style="fill:#69644f; stroke:none;" d="M108 72L109 73L108 72z"/>
<path style="fill:#9b9169; stroke:none;" d="M119 72L120 73L119 72M165 72L166 73L165 72z"/>
<path style="fill:#69644f; stroke:none;" d="M188 72L189 73L188 72z"/>
<path style="fill:#9b9169; stroke:none;" d="M196 72L197 73L196 72M205 72L206 73L205 72z"/>
<path style="fill:#69644f; stroke:none;" d="M221 72L222 73L221 72z"/>
<path style="fill:#9b9169; stroke:none;" d="M234 72L235 73L234 72z"/>
<path style="fill:#69644f; stroke:none;" d="M248 72L249 73L248 72z"/>
<path style="fill:#9b9169; stroke:none;" d="M252 72L253 73L252 72z"/>
<path style="fill:#69644f; stroke:none;" d="M282 72L283 73L282 72z"/>
<path style="fill:#9b9169; stroke:none;" d="M283 72L284 73L283 72M296 72L297 73L296 72M305.333 72.6667L305.667 73.3333L305.333 72.6667z"/>
<path style="fill:#69644f; stroke:none;" d="M315 72L316 73L315 72M322 72L323 73L322 72z"/>
<path style="fill:#fcdd58; stroke:none;" d="M323 72L324 73L323 72z"/>
<path style="fill:#9b9169; stroke:none;" d="M337 72L338 73L337 72z"/>
<path style="fill:#69644f; stroke:none;" d="M363 72L364 73L363 72M25 73L26 74L25 73M28.3333 73.6667L28.6667 74.3333L28.3333 73.6667z"/>
<path style="fill:#9b9169; stroke:none;" d="M38 73L39 74L38 73z"/>
<path style="fill:#69644f; stroke:none;" d="M51 73L51 77L52 77L51 73z"/>
<path style="fill:#9b9169; stroke:none;" d="M55 73L56 74L55 73z"/>
<path style="fill:#69644f; stroke:none;" d="M74 73L75 74L74 73z"/>
<path style="fill:#9b9169; stroke:none;" d="M85 73L86 74L85 73M107 73L108 74L107 73z"/>
<path style="fill:#69644f; stroke:none;" d="M117 74L117 75L129 75L117 74M162 73L163 74L162 73M164 73L165 74L164 73M174 73L175 74L174 73z"/>
<path style="fill:#9b9169; stroke:none;" d="M186 73L187 74L186 73M194 73L195 74L194 73z"/>
<path style="fill:#69644f; stroke:none;" d="M204 73L205 74L204 73M208 73L209 74L208 73z"/>
<path style="fill:#9b9169; stroke:none;" d="M247 73L248 74L247 73z"/>
<path style="fill:#69644f; stroke:none;" d="M251 73L252 74L251 73M260 73L261 74L260 73z"/>
<path style="fill:#fcdd58; stroke:none;" d="M267 73L268 74L267 73M272 73L273 74L272 73z"/>
<path style="fill:#69644f; stroke:none;" d="M280 73L281 74L280 73z"/>
<path style="fill:#9b9169; stroke:none;" d="M298 73L299 74L298 73z"/>
<path style="fill:#69644f; stroke:none;" d="M320 73L321 74L320 73z"/>
<path style="fill:#9b9169; stroke:none;" d="M321 73L322 74L321 73z"/>
<path style="fill:#69644f; stroke:none;" d="M337 73L338 74L337 73z"/>
<path style="fill:#fcdd58; stroke:none;" d="M350 73L351 74L350 73z"/>
<path style="fill:#9b9169; stroke:none;" d="M361 73L362 74L361 73M8.33333 74.6667L8.66667 75.3333L8.33333 74.6667z"/>
<path style="fill:#69644f; stroke:none;" d="M16 74L17 75L16 74M38 74L39 75L38 74M41 74L42 75L41 74M54 74L54 78L55 78L54 74M73 74L74 75L73 74M79.6667 74.3333L80.3333 74.6667L79.6667 74.3333z"/>
<path style="fill:#9b9169; stroke:none;" d="M86 74L87 75L86 74M106 74L107 75L106 74z"/>
<path style="fill:#69644f; stroke:none;" d="M154 74L155 75L154 74z"/>
<path style="fill:#fcdd58; stroke:none;" d="M161 74L162 75L161 74M164 74L165 75L164 74z"/>
<path style="fill:#9b9169; stroke:none;" d="M171 74L172 75L171 74z"/>
<path style="fill:#fcdd58; stroke:none;" d="M174 74L175 75L174 74z"/>
<path style="fill:#9b9169; stroke:none;" d="M184 74L185 75L184 74z"/>
<path style="fill:#69644f; stroke:none;" d="M185 74L186 75L185 74M191 74L192 75L191 74z"/>
<path style="fill:#9b9169; stroke:none;" d="M192 74L193 75L192 74M202 74L203 75L202 74M207 74L208 75L207 74z"/>
<path style="fill:#69644f; stroke:none;" d="M233 74L234 75L233 74M250 74L251 75L250 74z"/>
<path style="fill:#9b9169; stroke:none;" d="M259 74L260 75L259 74M267 74L268 75L267 74M272.333 74.6667L272.667 75.3333L272.333 74.6667z"/>
<path style="fill:#69644f; stroke:none;" d="M277 74L278 75L277 74z"/>
<path style="fill:#9b9169; stroke:none;" d="M278 74L279 75L278 74z"/>
<path style="fill:#69644f; stroke:none;" d="M295 74L296 75L295 74M297 74L298 75L297 74z"/>
<path style="fill:#9b9169; stroke:none;" d="M314 74L315 75L314 74z"/>
<path style="fill:#69644f; stroke:none;" d="M318 74L319 75L318 74z"/>
<path style="fill:#9b9169; stroke:none;" d="M319 74L320 75L319 74M329 74L330 77L331 77L329 74z"/>
<path style="fill:#69644f; stroke:none;" d="M330 74L331 75L330 74M360 74L361 75L360 74M13 75L14 76L13 75M17 75L18 76L17 75z"/>
<path style="fill:#9b9169; stroke:none;" d="M41 75L42 76L41 75z"/>
<path style="fill:#fcdd58; stroke:none;" d="M77.4367 76.0432C73.2246 78.8306 77.3119 85.5276 81.686 82.9282C86.3523 80.1552 82.1275 72.9391 77.4367 76.0432z"/>
<path style="fill:#9b9169; stroke:none;" d="M82 75L83 76L82 75M105 75L106 76L105 75M134 75L134 76L137 76L134 75z"/>
<path style="fill:#69644f; stroke:none;" d="M137.667 75.3333L138.333 75.6667L137.667 75.3333z"/>
<path style="fill:#9b9169; stroke:none;" d="M154 75L154 78L155 78L154 75z"/>
<path style="fill:#69644f; stroke:none;" d="M161 75L162 76L161 75z"/>
<path style="fill:#9b9169; stroke:none;" d="M163 75L164 76L163 75z"/>
<path style="fill:#69644f; stroke:none;" d="M171 75L172 76L171 75z"/>
<path style="fill:#9b9169; stroke:none;" d="M182 75L183 76L182 75z"/>
<path style="fill:#69644f; stroke:none;" d="M183 75L184 76L183 75M189 75L190 76L189 75z"/>
<path style="fill:#fcdd58; stroke:none;" d="M190 75L191 76L190 75z"/>
<path style="fill:#69644f; stroke:none;" d="M201 75L202 76L201 75z"/>
<path style="fill:#9b9169; stroke:none;" d="M219 75L220 76L219 75M233 75L234 76L233 75M249 75L250 76L249 75z"/>
<path style="fill:#69644f; stroke:none;" d="M267 75L268 76L267 75M273 75L274 76L273 75z"/>
<path style="fill:#9b9169; stroke:none;" d="M274.667 75.3333L275.333 75.6667L274.667 75.3333z"/>
<path style="fill:#fcdd58; stroke:none;" d="M294 75L295 76L294 75z"/>
<path style="fill:#9b9169; stroke:none;" d="M304 75L305 76L304 75z"/>
<path style="fill:#69644f; stroke:none;" d="M307 75L308 76L307 75z"/>
<path style="fill:#9b9169; stroke:none;" d="M316 75L317 76L316 75z"/>
<path style="fill:#69644f; stroke:none;" d="M328 75L329 76L328 75z"/>
<path style="fill:#fcdd58; stroke:none;" d="M348 75L349 76L348 75z"/>
<path style="fill:#9b9169; stroke:none;" d="M358.333 75.6667L358.667 76.3333L358.333 75.6667z"/>
<path style="fill:#69644f; stroke:none;" d="M8.33333 76.6667L8.66667 77.3333L8.33333 76.6667M18 76L19 77L18 76z"/>
<path style="fill:#9b9169; stroke:none;" d="M19 76L19 77L22 77L19 76z"/>
<path style="fill:#69644f; stroke:none;" d="M22 76L23 77L22 76M27 76L28 77L27 76z"/>
<path style="fill:#9b9169; stroke:none;" d="M37 76L38 77L37 76z"/>
<path style="fill:#69644f; stroke:none;" d="M72 76L73 77L72 76z"/>
<path style="fill:#9b9169; stroke:none;" d="M87 76L88 77L87 76M94 76L95 77L94 76z"/>
<path style="fill:#69644f; stroke:none;" d="M104 76L105 77L104 76z"/>
<path style="fill:#9b9169; stroke:none;" d="M141.667 76.3333L142.333 76.6667L141.667 76.3333z"/>
<path style="fill:#69644f; stroke:none;" d="M143 76L144 77L143 76M162 76L163 77L162 76M173 76L173 80L174 80L173 76z"/>
<path style="fill:#9b9169; stroke:none;" d="M180 76L181 77L180 76M187 76L188 77L187 76M199 76L200 77L199 76z"/>
<path style="fill:#69644f; stroke:none;" d="M204 76L205 77L204 76z"/>
<path style="fill:#fcdd58; stroke:none;" d="M220 76L221 77L220 76z"/>
<path style="fill:#69644f; stroke:none;" d="M245 76L246 77L245 76M247 76L248 77L247 76M258 76L259 77L258 76z"/>
<path style="fill:#9b9169; stroke:none;" d="M287 76L288 77L287 76z"/>
<path style="fill:#69644f; stroke:none;" d="M294.333 76.6667L294.667 77.3333L294.333 76.6667M304 76L305 77L304 76z"/>
<path style="fill:#9b9169; stroke:none;" d="M336 76L337 77L336 76M347 76L348 77L347 76z"/>
<path style="fill:#69644f; stroke:none;" d="M26 77L27 78L26 77M37 77L37 84L38 84L37 77M75 77L76 78L75 77M84 77L85 78L84 77M94 77L95 78L94 77z"/>
<path style="fill:#9b9169; stroke:none;" d="M146.667 77.3333L147.333 77.6667L146.667 77.3333M160.667 77.3333L161.333 77.6667L160.667 77.3333z"/>
<path style="fill:#69644f; stroke:none;" d="M170 77L171 78L170 77M184 77L185 78L184 77z"/>
<path style="fill:#9b9169; stroke:none;" d="M185 77L186 78L185 77z"/>
<path style="fill:#69644f; stroke:none;" d="M198 77L199 78L198 77z"/>
<path style="fill:#9b9169; stroke:none;" d="M203 77L204 78L203 77z"/>
<path style="fill:#69644f; stroke:none;" d="M222 77L223 78L222 77M232 77L233 78L232 77z"/>
<path style="fill:#9b9169; stroke:none;" d="M245 77L246 78L245 77z"/>
<path style="fill:#69644f; stroke:none;" d="M257 77L258 78L257 77z"/>
<path style="fill:#9b9169; stroke:none;" d="M268 77L269 78L268 77M285 77L286 78L285 77M325 77L326 78L325 77z"/>
<path style="fill:#69644f; stroke:none;" d="M336 77L337 78L336 77M346 77L347 78L346 77M25 78L26 79L25 78M40 78L40 82L45 82L45 81L40 78M50 78L51 79L50 78z"/>
<path style="fill:#9b9169; stroke:none;" d="M84 78L84 81L85 81L84 78z"/>
<path style="fill:#69644f; stroke:none;" d="M103 78L104 79L103 78z"/>
<path style="fill:#9b9169; stroke:none;" d="M150 78L151 79L150 78z"/>
<path style="fill:#69644f; stroke:none;" d="M151 78L152 79L151 78M154 78L155 79L154 78z"/>
<path style="fill:#9b9169; stroke:none;" d="M169 78L170 79L169 78z"/>
<path style="fill:#69644f; stroke:none;" d="M180 78L181 79L180 78z"/>
<path style="fill:#9b9169; stroke:none;" d="M181.667 78.3333L182.333 78.6667L181.667 78.3333z"/>
<path style="fill:#69644f; stroke:none;" d="M196 78L197 79L196 78z"/>
<path style="fill:#9b9169; stroke:none;" d="M223 78L224 79L223 78z"/>
<path style="fill:#69644f; stroke:none;" d="M224 78L225 79L224 78z"/>
<path style="fill:#9b9169; stroke:none;" d="M232 78L233 79L232 78z"/>
<path style="fill:#69644f; stroke:none;" d="M256 78L257 79L256 78z"/>
<path style="fill:#fcdd58; stroke:none;" d="M283 78L284 79L283 78z"/>
<path style="fill:#69644f; stroke:none;" d="M284 78L285 79L284 78M303 78L304 79L303 78M308 78L309 79L308 78M324 78L325 79L324 78z"/>
<path style="fill:#9b9169; stroke:none;" d="M17 79L18 80L17 79z"/>
<path style="fill:#69644f; stroke:none;" d="M18 79L19 80L18 79M23 79L24 80L23 79M49 79L50 80L49 79M53 79L54 80L53 79z"/>
<path style="fill:#9b9169; stroke:none;" d="M71 79L72 80L71 79M93 79L94 80L93 79M153 79L154 80L153 79z"/>
<path style="fill:#020202; stroke:none;" d="M154 79L155 80L154 79z"/>
<path style="fill:#9b9169; stroke:none;" d="M194 79L195 80L194 79z"/>
<path style="fill:#69644f; stroke:none;" d="M200 79L201 80L200 79M212.667 79.3333L213.333 79.6667L212.667 79.3333z"/>
<path style="fill:#9b9169; stroke:none;" d="M225 79L226 80L225 79z"/>
<path style="fill:#69644f; stroke:none;" d="M226 79L227 80L226 79M255 79L256 80L255 79M269 79L270 80L269 79z"/>
<path style="fill:#9b9169; stroke:none;" d="M281 79L282 80L281 79z"/>
<path style="fill:#69644f; stroke:none;" d="M282 79L283 80L282 79M288 79L289 80L288 79z"/>
<path style="fill:#9b9169; stroke:none;" d="M302 79L303 80L302 79M309 79L310 80L309 79M322 79L323 80L322 79z"/>
<path style="fill:#69644f; stroke:none;" d="M329.333 79.6667L329.667 80.3333L329.333 79.6667M345 79L346 80L345 79z"/>
<path style="fill:#9b9169; stroke:none;" d="M9 80L10 81L9 80M46 80L47 81L46 80z"/>
<path style="fill:#69644f; stroke:none;" d="M47 80L48 81L47 80M93 80L94 81L93 80M104 80L105 81L104 80z"/>
<path style="fill:#9b9169; stroke:none;" d="M118 80L118 81L122 81L118 80z"/>
<path style="fill:#69644f; stroke:none;" d="M122 80L122 81L132 81L122 80z"/>
<path style="fill:#9b9169; stroke:none;" d="M132 80L132 81L135 81L132 80z"/>
<path style="fill:#fcdd58; stroke:none;" d="M135 80L136 81L135 80z"/>
<path style="fill:#69644f; stroke:none;" d="M168 80L169 81L168 80z"/>
<path style="fill:#9b9169; stroke:none;" d="M192 80L193 81L192 80M199 80L200 81L199 80M210 80L211 81L210 80M228 80L229 81L228 80z"/>
<path style="fill:#69644f; stroke:none;" d="M231 80L232 81L231 80z"/>
<path style="fill:#fcdd58; stroke:none;" d="M242 80L243 81L242 80z"/>
<path style="fill:#69644f; stroke:none;" d="M270 80L271 81L270 80z"/>
<path style="fill:#9b9169; stroke:none;" d="M278 80L279 81L278 80z"/>
<path style="fill:#69644f; stroke:none;" d="M279 80L280 81L279 80z"/>
<path style="fill:#9b9169; stroke:none;" d="M320 80L321 81L320 80z"/>
<path style="fill:#fcdd58; stroke:none;" d="M335 80L336 81L335 80z"/>
<path style="fill:#9b9169; stroke:none;" d="M345 80L346 81L345 80z"/>
<path style="fill:#fcdd58; stroke:none;" d="M358 80L359 81L358 80z"/>
<path style="fill:#69644f; stroke:none;" d="M9 81L10 82L9 81M75 81L76 82L75 81M84 81L85 82L84 81M87 81L88 82L87 81M105 81L106 82L105 81z"/>
<path style="fill:#fcdd58; stroke:none;" d="M111 81L112 82L111 81z"/>
<path style="fill:#9b9169; stroke:none;" d="M112 81L113 82L112 81z"/>
<path style="fill:#69644f; stroke:none;" d="M113.667 81.3333L114.333 81.6667L113.667 81.3333M140 81L141 82L140 81z"/>
<path style="fill:#9b9169; stroke:none;" d="M141.667 81.3333L142.333 81.6667L141.667 81.3333M167 81L168 82L167 81M174 81L175 82L174 81M190 81L191 82L190 81z"/>
<path style="fill:#69644f; stroke:none;" d="M191 81L192 82L191 81M209 81L210 82L209 81z"/>
<path style="fill:#9b9169; stroke:none;" d="M216 81L217 82L216 81z"/>
<path style="fill:#fcdd58; stroke:none;" d="M229 81L230 82L229 81z"/>
<path style="fill:#9b9169; stroke:none;" d="M231 81L232 82L231 81M243 81L244 82L243 81z"/>
<path style="fill:#69644f; stroke:none;" d="M252 81L253 82L252 81M272 81L273 82L272 81z"/>
<path style="fill:#9b9169; stroke:none;" d="M273 81L273 82L276 82L273 81z"/>
<path style="fill:#69644f; stroke:none;" d="M276 81L277 82L276 81M289 81L290 82L289 81z"/>
<path style="fill:#9b9169; stroke:none;" d="M311 81L312 82L311 81M318 81L319 82L318 81z"/>
<path style="fill:#69644f; stroke:none;" d="M319 81L320 82L319 81z"/>
<path style="fill:#9b9169; stroke:none;" d="M329 81L330 82L329 81M335 81L336 82L335 81M358 81L359 82L358 81z"/>
<path style="fill:#69644f; stroke:none;" d="M50 82L51 83L50 82M72 82L73 83L72 82z"/>
<path style="fill:#9b9169; stroke:none;" d="M83 82L84 83L83 82M87 82L88 83L87 82M92 82L93 83L92 82M107.667 82.3333L108.333 82.6667L107.667 82.3333z"/>
<path style="fill:#69644f; stroke:none;" d="M109 82L110 83L109 82M146 82L147 83L146 82z"/>
<path style="fill:#9b9169; stroke:none;" d="M147 82L148 83L147 82z"/>
<path style="fill:#69644f; stroke:none;" d="M166 82L167 83L166 82z"/>
<path style="fill:#9b9169; stroke:none;" d="M188 82L189 83L188 82M199 82L200 83L199 82z"/>
<path style="fill:#69644f; stroke:none;" d="M208 82L209 83L208 82M217 82L218 83L217 82z"/>
<path style="fill:#9b9169; stroke:none;" d="M229 82L230 83L229 82z"/>
<path style="fill:#69644f; stroke:none;" d="M241 82L242 83L241 82z"/>
<path style="fill:#9b9169; stroke:none;" d="M244 82L245 83L244 82z"/>
<path style="fill:#69644f; stroke:none;" d="M250 82L251 83L250 82M290 82L291 83L290 82z"/>
<path style="fill:#fcdd58; stroke:none;" d="M299 82L300 83L299 82z"/>
<path style="fill:#69644f; stroke:none;" d="M313 82L314 83L313 82z"/>
<path style="fill:#9b9169; stroke:none;" d="M314.667 82.3333L315.333 82.6667L314.667 82.3333z"/>
<path style="fill:#69644f; stroke:none;" d="M316 82L317 83L316 82z"/>
<path style="fill:#fcdd58; stroke:none;" d="M329 82L330 83L329 82z"/>
<path style="fill:#69644f; stroke:none;" d="M335.333 82.6667L335.667 83.3333L335.333 82.6667M358 82L359 83L358 82z"/>
<path style="fill:#9b9169; stroke:none;" d="M24 83L25 84L24 83z"/>
<path style="fill:#69644f; stroke:none;" d="M25 83L26 84L25 83z"/>
<path style="fill:#020202; stroke:none;" d="M26.0154 83.6667C16.75 85.5767 19.6782 100.529 28.9954 98.5224C38.3365 96.5105 35.5839 81.6941 26.0154 83.6667z"/>
<path style="fill:#69644f; stroke:none;" d="M29 83L30 84L29 83z"/>
<path style="fill:#9b9169; stroke:none;" d="M30 83L31 84L30 83M48 83L49 84L48 83M77 83L78 84L77 83z"/>
<path style="fill:#69644f; stroke:none;" d="M82 83L83 84L82 83M150 83L151 84L150 83z"/>
<path style="fill:#9b9169; stroke:none;" d="M151 83L152 84L151 83M164 83L165 84L164 83z"/>
<path style="fill:#fcdd58; stroke:none;" d="M185 83L186 84L185 83z"/>
<path style="fill:#69644f; stroke:none;" d="M186 83L187 84L186 83z"/>
<path style="fill:#9b9169; stroke:none;" d="M206 83L207 84L206 83M219 83L220 84L219 83z"/>
<path style="fill:#69644f; stroke:none;" d="M230 83L231 84L230 83z"/>
<path style="fill:#fcdd58; stroke:none;" d="M240 83L241 84L240 83z"/>
<path style="fill:#69644f; stroke:none;" d="M246 83L247 84L246 83M291 83L292 84L291 83z"/>
<path style="fill:#9b9169; stroke:none;" d="M292 83L293 84L292 83z"/>
<path style="fill:#69644f; stroke:none;" d="M298 83L299 84L298 83z"/>
<path style="fill:#fcdd58; stroke:none;" d="M357 83L358 84L357 83z"/>
<path style="fill:#9b9169; stroke:none;" d="M10 84L11 85L10 84M32 84L33 85L32 84z"/>
<path style="fill:#69644f; stroke:none;" d="M42 84L42 85L45 85L42 84z"/>
<path style="fill:#9b9169; stroke:none;" d="M45 84L46 85L45 84M73 84L74 85L73 84z"/>
<path style="fill:#69644f; stroke:none;" d="M79.6667 84.3333L80.3333 84.6667L79.6667 84.3333z"/>
<path style="fill:#9b9169; stroke:none;" d="M91 84L92 85L91 84z"/>
<path style="fill:#69644f; stroke:none;" d="M153 84L154 85L153 84z"/>
<path style="fill:#fcdd58; stroke:none;" d="M154 84L155 85L154 84z"/>
<path style="fill:#9b9169; stroke:none;" d="M162 84L163 85L162 84M177 84L178 85L177 84z"/>
<path style="fill:#fcdd58; stroke:none;" d="M182 84L183 85L182 84z"/>
<path style="fill:#9b9169; stroke:none;" d="M183 84L184 85L183 84z"/>
<path style="fill:#69644f; stroke:none;" d="M184 84L185 85L184 84M205 84L206 85L205 84M220 84L221 85L220 84z"/>
<path style="fill:#fcdd58; stroke:none;" d="M221 84L222 85L221 84z"/>
<path style="fill:#9b9169; stroke:none;" d="M230 84L231 85L230 84z"/>
<path style="fill:#69644f; stroke:none;" d="M240 84L241 85L240 84M294.667 84.3333L295.333 84.6667L294.667 84.3333M345 84L346 85L345 84M357 84L358 85L357 84z"/>
<path style="fill:#9b9169; stroke:none;" d="M33 85L34 86L33 85M74 85L75 86L74 85M85 85L86 86L85 85M156 85L157 86L156 85z"/>
<path style="fill:#69644f; stroke:none;" d="M163 85L164 86L163 85M202 85L203 86L202 85z"/>
<path style="fill:#9b9169; stroke:none;" d="M203 85L204 86L203 85M223 85L224 86L223 85M226 85L227 86L226 85M239 85L240 86L239 85z"/>
<path style="fill:#69644f; stroke:none;" d="M328 85L328 88L329 88L328 85z"/>
<path style="fill:#9b9169; stroke:none;" d="M356 85L357 86L356 85M11 86L12 87L11 86z"/>
<path style="fill:#69644f; stroke:none;" d="M25 86L26 87L25 86z"/>
<path style="fill:#9b9169; stroke:none;" d="M26 86L26 87L29 87L26 86z"/>
<path style="fill:#69644f; stroke:none;" d="M29 86L30 87L29 86z"/>
<path style="fill:#9b9169; stroke:none;" d="M34 86L35 87L34 86M65 86L65 87L68 87L65 86M75 86L76 87L75 86z"/>
<path style="fill:#69644f; stroke:none;" d="M76 86L77 87L76 86M83 86L84 87L83 86M90 86L91 87L90 86z"/>
<path style="fill:#9b9169; stroke:none;" d="M158 86L159 87L158 86z"/>
<path style="fill:#69644f; stroke:none;" d="M164 86L165 87L164 86M229 86L230 87L229 86z"/>
<path style="fill:#9b9169; stroke:none;" d="M334.333 86.6667L334.667 87.3333L334.333 86.6667M355 86L356 87L355 86z"/>
<path style="fill:#69644f; stroke:none;" d="M11 87L12 88L11 87M20 87L21 88L20 87z"/>
<path style="fill:#9b9169; stroke:none;" d="M24 87L25 88L24 87z"/>
<path style="fill:#fcdd58; stroke:none;" d="M25.3179 88.0324C21.0659 90.859 25.3145 97.3931 29.6852 94.777C34.2848 92.0239 30.0223 84.9051 25.3179 88.0324z"/>
<path style="fill:#9b9169; stroke:none;" d="M62 87L63 88L62 87z"/>
<path style="fill:#020202; stroke:none;" d="M63.1088 87.8619C54.4064 91.6918 60.7818 105.812 69.8912 101.388C78.3448 97.2831 71.6371 84.1086 63.1088 87.8619z"/>
<path style="fill:#69644f; stroke:none;" d="M69 87L70 88L69 87z"/>
<path style="fill:#9b9169; stroke:none;" d="M70 87L71 88L70 87M78 87L79 88L78 87z"/>
<path style="fill:#69644f; stroke:none;" d="M79.6667 87.3333L80.3333 87.6667L79.6667 87.3333z"/>
<path style="fill:#9b9169; stroke:none;" d="M81 87L82 88L81 87z"/>
<path style="fill:#69644f; stroke:none;" d="M159 87L160 88L159 87M165 87L166 88L165 87z"/>
<path style="fill:#9b9169; stroke:none;" d="M229 87L230 88L229 87z"/>
<path style="fill:#69644f; stroke:none;" d="M238 87L239 88L238 87z"/>
<path style="fill:#fcdd58; stroke:none;" d="M348 87L349 88L348 87z"/>
<path style="fill:#9b9169; stroke:none;" d="M354 87L355 88L354 87z"/>
<path style="fill:#69644f; stroke:none;" d="M23 88L24 89L23 88z"/>
<path style="fill:#9b9169; stroke:none;" d="M31 88L32 89L31 88M35 88L36 89L35 88z"/>
<path style="fill:#69644f; stroke:none;" d="M61 88L62 89L61 88M71 88L72 89L71 88M89 88L90 89L89 88z"/>
<path style="fill:#9b9169; stroke:none;" d="M328 88L328 91L329 91L328 88z"/>
<path style="fill:#69644f; stroke:none;" d="M334 88L334 91L335 91L334 88M349 88L350 89L349 88z"/>
<path style="fill:#9b9169; stroke:none;" d="M350 88L350 89L353 89L350 88z"/>
<path style="fill:#69644f; stroke:none;" d="M353 88L354 89L353 88M12 89L13 90L12 89z"/>
<path style="fill:#9b9169; stroke:none;" d="M19.3333 89.6667L19.6667 90.3333L19.3333 89.6667z"/>
<path style="fill:#69644f; stroke:none;" d="M35 89L35 93L36 93L35 89M72 89L73 90L72 89z"/>
<path style="fill:#9b9169; stroke:none;" d="M88 89L89 90L88 89z"/>
<path style="fill:#69644f; stroke:none;" d="M161 89L162 90L161 89z"/>
<path style="fill:#9b9169; stroke:none;" d="M166 89L167 90L166 89z"/>
<path style="fill:#69644f; stroke:none;" d="M228 89L229 90L228 89M237 89L238 90L237 89M32 90L32 93L33 93L32 90M59 90L60 91L59 90z"/>
<path style="fill:#9b9169; stroke:none;" d="M64 90L65 91L64 90z"/>
<path style="fill:#fcdd58; stroke:none;" d="M65.1327 90.8511C60.1613 92.5073 62.9521 100.019 67.8557 98.338C72.7158 96.6718 69.9602 89.2428 65.1327 90.8511z"/>
<path style="fill:#9b9169; stroke:none;" d="M68 90L69 91L68 90M73 90L74 91L73 90z"/>
<path style="fill:#69644f; stroke:none;" d="M162 90L163 91L162 90M167 90L168 91L167 90z"/>
<path style="fill:#9b9169; stroke:none;" d="M228 90L229 91L228 90z"/>
<path style="fill:#69644f; stroke:none;" d="M13 91L14 92L13 91M19 91L20 92L19 91M22 91L23 92L22 91M62 91L63 92L62 91M73 91L74 92L73 91z"/>
<path style="fill:#9b9169; stroke:none;" d="M163 91L164 92L163 91z"/>
<path style="fill:#fcdd58; stroke:none;" d="M167 91L168 92L167 91z"/>
<path style="fill:#69644f; stroke:none;" d="M236 91L237 92L236 91z"/>
<path style="fill:#9b9169; stroke:none;" d="M19 92L20 93L19 92M42 92L43 93L42 92z"/>
<path style="fill:#69644f; stroke:none;" d="M43 92L44 93L43 92z"/>
<path style="fill:#020202; stroke:none;" d="M44.0154 92.6165C34.8199 94.7467 37.651 109.535 46.9954 107.522C56.3407 105.51 53.5563 90.4063 44.0154 92.6165z"/>
<path style="fill:#69644f; stroke:none;" d="M48 92L49 93L48 92z"/>
<path style="fill:#9b9169; stroke:none;" d="M58 92L59 93L58 92M70 92L71 93L70 92z"/>
<path style="fill:#69644f; stroke:none;" d="M86 92L87 93L86 92z"/>
<path style="fill:#9b9169; stroke:none;" d="M164 92L165 93L164 92M167 92L168 93L167 92z"/>
<path style="fill:#69644f; stroke:none;" d="M227 92L228 93L227 92M14 93L15 94L14 93z"/>
<path style="fill:#9b9169; stroke:none;" d="M23 93L24 94L23 93M35 93L36 94L35 93M50 93L51 94L50 93z"/>
<path style="fill:#69644f; stroke:none;" d="M58 93L58 97L59 97L58 93M61 93L61 96L62 96L61 93z"/>
<path style="fill:#9b9169; stroke:none;" d="M74 93L75 94L74 93M85 93L86 94L85 93z"/>
<path style="fill:#69644f; stroke:none;" d="M166 93L167 94L166 93z"/>
<path style="fill:#9b9169; stroke:none;" d="M227 93L228 94L227 93z"/>
<path style="fill:#69644f; stroke:none;" d="M235 93L236 94L235 93z"/>
<path style="fill:#9b9169; stroke:none;" d="M15 94L16 95L15 94z"/>
<path style="fill:#69644f; stroke:none;" d="M20 94L21 95L20 94M51 94L52 95L51 94M71 94L72 95L71 94M74.3333 94.6667L74.6667 95.3333L74.3333 94.6667z"/>
<path style="fill:#9b9169; stroke:none;" d="M84 94L85 95L84 94z"/>
<path style="fill:#fcdd58; stroke:none;" d="M333 94L334 95L333 94z"/>
<path style="fill:#69644f; stroke:none;" d="M25 95L26 96L25 95z"/>
<path style="fill:#9b9169; stroke:none;" d="M29 95L30 96L29 95z"/>
<path style="fill:#69644f; stroke:none;" d="M34 95L35 96L34 95M43 95L44 96L43 95z"/>
<path style="fill:#9b9169; stroke:none;" d="M44 95L44 96L47 96L44 95z"/>
<path style="fill:#69644f; stroke:none;" d="M47 95L48 96L47 95z"/>
<path style="fill:#9b9169; stroke:none;" d="M52 95L53 96L52 95M83 95L84 96L83 95z"/>
<path style="fill:#69644f; stroke:none;" d="M226 95L227 96L226 95M234 95L235 96L234 95z"/>
<path style="fill:#9b9169; stroke:none;" d="M333 95L333 103L334 103L333 95z"/>
<path style="fill:#69644f; stroke:none;" d="M16 96L17 97L16 96z"/>
<path style="fill:#9b9169; stroke:none;" d="M21 96L22 97L21 96z"/>
<path style="fill:#69644f; stroke:none;" d="M33 96L34 97L33 96M38 96L39 97L38 96z"/>
<path style="fill:#9b9169; stroke:none;" d="M42 96L43 97L42 96z"/>
<path style="fill:#fcdd58; stroke:none;" d="M43.3218 97.0324C39.2326 99.7492 43.5679 106.055 47.6829 103.762C52.4615 101.1 48.125 93.8412 43.3218 97.0324z"/>
<path style="fill:#9b9169; stroke:none;" d="M74 96L75 97L74 96M82 96L83 97L82 96M226 96L227 97L226 96z"/>
<path style="fill:#69644f; stroke:none;" d="M17 97L18 98L17 97z"/>
<path style="fill:#9b9169; stroke:none;" d="M22 97L23 98L22 97z"/>
<path style="fill:#69644f; stroke:none;" d="M32 97L33 98L32 97M41 97L42 98L41 97z"/>
<path style="fill:#9b9169; stroke:none;" d="M53 97L54 98L53 97M58 97L59 98L58 97M62 97L63 98L62 97z"/>
<path style="fill:#69644f; stroke:none;" d="M70 97L71 98L70 97z"/>
<path style="fill:#9b9169; stroke:none;" d="M81 97L82 98L81 97M233 97L234 98L233 97M18 98L19 99L18 98z"/>
<path style="fill:#69644f; stroke:none;" d="M24 98L25 99L24 98M30 98L31 99L30 98z"/>
<path style="fill:#9b9169; stroke:none;" d="M31 98L32 99L31 98M37 98L37 102L38 102L37 98z"/>
<path style="fill:#69644f; stroke:none;" d="M50 98L50 102L51 102L50 98M53 98L53 102L54 102L53 98z"/>
<path style="fill:#9b9169; stroke:none;" d="M63 98L64 99L63 98z"/>
<path style="fill:#69644f; stroke:none;" d="M69 98L70 99L69 98M73 98L74 99L73 98z"/>
<path style="fill:#9b9169; stroke:none;" d="M80 98L81 99L80 98z"/>
<path style="fill:#69644f; stroke:none;" d="M225 98L226 99L225 98z"/>
<path style="fill:#9b9169; stroke:none;" d="M26 99L26 100L29 100L26 99z"/>
<path style="fill:#69644f; stroke:none;" d="M64.6667 99.3333L65.3333 99.6667L64.6667 99.3333z"/>
<path style="fill:#9b9169; stroke:none;" d="M66 99L67 100L66 99z"/>
<path style="fill:#69644f; stroke:none;" d="M67 99L68 100L67 99M79 99L80 100L79 99z"/>
<path style="fill:#9b9169; stroke:none;" d="M225 99L226 100L225 99M232 99L233 100L232 99M60 100L61 101L60 100z"/>
<path style="fill:#69644f; stroke:none;" d="M78 100L79 101L78 100M232 100L233 101L232 100z"/>
<path style="fill:#9b9169; stroke:none;" d="M61 101L62 102L61 101z"/>
<path style="fill:#69644f; stroke:none;" d="M70 101L71 102L70 101M224 101L225 102L224 101z"/>
<path style="fill:#fcdd58; stroke:none;" d="M231 101L232 102L231 101M328 101L329 102L328 101z"/>
<path style="fill:#69644f; stroke:none;" d="M41 102L42 103L41 102z"/>
<path style="fill:#9b9169; stroke:none;" d="M53 102L54 103L53 102M63 102L64 103L63 102z"/>
<path style="fill:#69644f; stroke:none;" d="M64.6667 102.333L65.3333 102.667L64.6667 102.333M67.6667 102.333L68.3333 102.667L67.6667 102.333z"/>
<path style="fill:#9b9169; stroke:none;" d="M69 102L70 103L69 102M75 102L76 103L75 102z"/>
<path style="fill:#fcdd58; stroke:none;" d="M224 102L225 103L224 102z"/>
<path style="fill:#69644f; stroke:none;" d="M231 102L232 103L231 102z"/>
<path style="fill:#9b9169; stroke:none;" d="M23 103L24 104L23 103z"/>
<path style="fill:#69644f; stroke:none;" d="M38 103L39 104L38 103z"/>
<path style="fill:#9b9169; stroke:none;" d="M42 103L43 104L42 103z"/>
<path style="fill:#69644f; stroke:none;" d="M74 103L75 104L74 103M333 103L334 104L333 103z"/>
<path style="fill:#9b9169; stroke:none;" d="M24 104L25 105L24 104z"/>
<path style="fill:#69644f; stroke:none;" d="M43 104L44 105L43 104z"/>
<path style="fill:#9b9169; stroke:none;" d="M47 104L48 105L47 104z"/>
<path style="fill:#69644f; stroke:none;" d="M52 104L53 105L52 104z"/>
<path style="fill:#9b9169; stroke:none;" d="M72 104L73 105L72 104z"/>
<path style="fill:#69644f; stroke:none;" d="M223 104L224 105L223 104z"/>
<path style="fill:#9b9169; stroke:none;" d="M230 104L231 105L230 104z"/>
<path style="fill:#69644f; stroke:none;" d="M331 104L332 105L331 104z"/>
<path style="fill:#9b9169; stroke:none;" d="M332 104L333 105L332 104z"/>
<path style="fill:#69644f; stroke:none;" d="M25 105L26 106L25 105z"/>
<path style="fill:#9b9169; stroke:none;" d="M39 105L40 106L39 105z"/>
<path style="fill:#69644f; stroke:none;" d="M51 105L52 106L51 105z"/>
<path style="fill:#9b9169; stroke:none;" d="M70 105L71 106L70 105z"/>
<path style="fill:#fcdd58; stroke:none;" d="M223 105L224 106L223 105z"/>
<path style="fill:#9b9169; stroke:none;" d="M27 106L28 107L27 106M40 106L41 107L40 106z"/>
<path style="fill:#69644f; stroke:none;" d="M50 106L51 107L50 106M69 106L70 107L69 106M28 107L29 108L28 107M42 107L43 108L42 107M48 107L49 108L48 107z"/>
<path style="fill:#9b9169; stroke:none;" d="M49 107L50 108L49 107z"/>
<path style="fill:#69644f; stroke:none;" d="M67 107L68 108L67 107M222 107L223 108L222 107M229 107L230 108L229 107M30 108L31 109L30 108z"/>
<path style="fill:#9b9169; stroke:none;" d="M45 108L46 109L45 108M64 108L65 109L64 108z"/>
<path style="fill:#69644f; stroke:none;" d="M65 108L66 109L65 108M32 109L33 110L32 109z"/>
<path style="fill:#9b9169; stroke:none;" d="M62 109L63 110L62 109z"/>
<path style="fill:#69644f; stroke:none;" d="M223 109L224 110L223 109z"/>
<path style="fill:#9b9169; stroke:none;" d="M228 109L229 110L228 109z"/>
<path style="fill:#69644f; stroke:none;" d="M34 110L35 111L34 110z"/>
<path style="fill:#9b9169; stroke:none;" d="M35 110L36 111L35 110M59 110L60 111L59 110z"/>
<path style="fill:#69644f; stroke:none;" d="M60 110L61 111L60 110M224 110L225 111L224 110M228 110L229 111L228 110M37 111L38 112L37 111z"/>
<path style="fill:#9b9169; stroke:none;" d="M38 111L39 112L38 111M55 111L56 112L55 111z"/>
<path style="fill:#69644f; stroke:none;" d="M56 111L57 112L56 111M225 111L226 112L225 111z"/>
<path style="fill:#9b9169; stroke:none;" d="M226.667 111.333L227.333 111.667L226.667 111.333z"/>
<path style="fill:#69644f; stroke:none;" d="M42 112L42 113L46 113L42 112z"/>
<path style="fill:#9b9169; stroke:none;" d="M46.6667 112.333L47.3333 112.667L46.6667 112.333z"/>
<path style="fill:#69644f; stroke:none;" d="M48 112L48 113L52 113L48 112M152 112L152 115L153 115L152 112z"/>
<path style="fill:#f6f6f6; stroke:none;" d="M153 112L151 127C154.415 124.032 154.686 116.027 153 112z"/>
<path style="fill:#9b9169; stroke:none;" d="M154.333 112.667L154.667 113.333L154.333 112.667z"/>
<path style="fill:#69644f; stroke:none;" d="M154.333 114.667L154.667 115.333L154.333 114.667z"/>
<path style="fill:#9b9169; stroke:none;" d="M120 116L120 117L123 117L120 116z"/>
<path style="fill:#69644f; stroke:none;" d="M122 115L123 116L122 115z"/>
<path style="fill:#9b9169; stroke:none;" d="M152.333 115.667L152.667 116.333L152.333 115.667z"/>
<path style="fill:#69644f; stroke:none;" d="M239 115L240 116L239 115z"/>
<path style="fill:#9b9169; stroke:none;" d="M240 115L241 116L240 115M253.667 115.333L254.333 115.667L253.667 115.333z"/>
<path style="fill:#f6f6f6; stroke:none;" d="M121 116L122 117L121 116z"/>
<path style="fill:#fcdd58; stroke:none;" d="M239 116L240 117L239 116z"/>
<path style="fill:#f6f6f6; stroke:none;" d="M240 116L241 117L240 116z"/>
<path style="fill:#69644f; stroke:none;" d="M241 116L242 117L241 116z"/>
<path style="fill:#f6f6f6; stroke:none;" d="M253.667 116.333L254.333 116.667L253.667 116.333z"/>
<path style="fill:#69644f; stroke:none;" d="M121 117L122 118L121 117M240 117L241 118L240 117M253.667 117.333L254.333 117.667L253.667 117.333M114 118L115 119L114 118M129.667 118.333L130.333 118.667L129.667 118.333M135 118L136 119L135 118M145.667 118.333L146.333 118.667L145.667 118.333M176.667 118.333L177.333 118.667L176.667 118.333M182 118L183 119L182 118M191 118L192 119L191 118M200 118L201 119L200 118M210.667 118.333L211.333 118.667L210.667 118.333M216 118L217 119L216 118M224.667 118.333L225.333 118.667L224.667 118.333z"/>
<path style="fill:#9b9169; stroke:none;" d="M243 118L248 123L245 118L243 118z"/>
<path style="fill:#69644f; stroke:none;" d="M262 118L263 119L262 118M271.667 118.333L272.333 118.667L271.667 118.333z"/>
<path style="fill:#9b9169; stroke:none;" d="M112 119L113 120L112 119z"/>
<path style="fill:#f6f6f6; stroke:none;" d="M112 123L115 126L111 125L111 126L117 125L117 124C115.107 122.256 113.31 121.31 116 120L112 123z"/>
<path style="fill:#fcdd58; stroke:none;" d="M116 119L117 120L116 119M120 119L121 120L120 119z"/>
<path style="fill:#f6f6f6; stroke:none;" d="M121 119L120 127L121 127L121 119M125 119L124 127L130 120L130 127L131 127L133 120L125 119z"/>
<path style="fill:#9b9169; stroke:none;" d="M126 119L127 120L126 119z"/>
<path style="fill:#69644f; stroke:none;" d="M127 119L128 120L127 119z"/>
<path style="fill:#9b9169; stroke:none;" d="M131 119L132 120L131 119z"/>
<path style="fill:#fcdd58; stroke:none;" d="M133 119L134 120L133 119z"/>
<path style="fill:#f6f6f6; stroke:none;" d="M134 119L135 127L137 119L134 119M141 119L140 131L141 131L142 126C148.509 127.213 151.12 120.188 144 119L144 120C146.576 121.545 146.474 125.998 143.651 124.083C142.35 123.201 141.833 120.327 141 119z"/>
<path style="fill:#9b9169; stroke:none;" d="M142.667 119.333L143.333 119.667L142.667 119.333z"/>
<path style="fill:#69644f; stroke:none;" d="M148 119L149 120L148 119z"/>
<path style="fill:#9b9169; stroke:none;" d="M156 119L157 120L156 119z"/>
<path style="fill:#f6f6f6; stroke:none;" d="M157 119L157 131L158 131L164 119L163 119L159 124L157 119z"/>
<path style="fill:#69644f; stroke:none;" d="M158 119L159 120L158 119z"/>
<path style="fill:#9b9169; stroke:none;" d="M164 119L165 120L164 119z"/>
<path style="fill:#fcdd58; stroke:none;" d="M172 119L173 120L172 119z"/>
<path style="fill:#f6f6f6; stroke:none;" d="M173 119L172 127L173 127L177 120L178 121L177 127L178 127L183 120L183 127L184 127L184 119L173 119z"/>
<path style="fill:#69644f; stroke:none;" d="M174 119L175 120L174 119z"/>
<path style="fill:#9b9169; stroke:none;" d="M180 119L181 120L180 119z"/>
<path style="fill:#69644f; stroke:none;" d="M184 119L185 120L184 119M188 119L187 121L188 119z"/>
<path style="fill:#f6f6f6; stroke:none;" d="M193 127L193 126L191 124L191 123L188 122L192 122L192 123L195 122C189.045 116.012 184.177 125.593 193 127z"/>
<path style="fill:#9b9169; stroke:none;" d="M193 119L194 120L193 119M197 122L198 122C198.653 120.04 199 119.446 199 122L200 122L199 119L197 122z"/>
<path style="fill:#f6f6f6; stroke:none;" d="M199 119L199 120L202 120L199 119z"/>
<path style="fill:#9b9169; stroke:none;" d="M202.333 119.667L202.667 120.333L202.333 119.667z"/>
<path style="fill:#f6f6f6; stroke:none;" d="M206 119L205 127L211 120L211 127L212 127L214 120L206 119z"/>
<path style="fill:#9b9169; stroke:none;" d="M207 119L208 120L207 119z"/>
<path style="fill:#69644f; stroke:none;" d="M208 119L209 120L208 119z"/>
<path style="fill:#9b9169; stroke:none;" d="M212 119L213 120L212 119z"/>
<path style="fill:#fcdd58; stroke:none;" d="M214 119L215 120L214 119z"/>
<path style="fill:#f6f6f6; stroke:none;" d="M215 119L216 127L218 119L215 119z"/>
<path style="fill:#69644f; stroke:none;" d="M222 119L223 120L222 119z"/>
<path style="fill:#f6f6f6; stroke:none;" d="M227 127L227 126L222 123L227 120L226 123L229 122C223.045 116.012 218.177 125.593 227 127z"/>
<path style="fill:#9b9169; stroke:none;" d="M227 119L228 120L227 119z"/>
<path style="fill:#69644f; stroke:none;" d="M231.333 119.667L231.667 120.333L231.333 119.667z"/>
<path style="fill:#f6f6f6; stroke:none;" d="M232 119L231 127L232 127L236 119L232 119z"/>
<path style="fill:#69644f; stroke:none;" d="M233.667 119.333L234.333 119.667L233.667 119.333z"/>
<path style="fill:#9b9169; stroke:none;" d="M236 119L235 121L236 119z"/>
<path style="fill:#f6f6f6; stroke:none;" d="M239 119L238 127L239 119z"/>
<path style="fill:#fcdd58; stroke:none;" d="M240 119L241 120L240 119z"/>
<path style="fill:#f6f6f6; stroke:none;" d="M244 119L244 120L248 122L250 119L244 119z"/>
<path style="fill:#69644f; stroke:none;" d="M252.333 119.667L252.667 120.333L252.333 119.667z"/>
<path style="fill:#f6f6f6; stroke:none;" d="M253 119L252 127L253 127L253 119z"/>
<path style="fill:#9b9169; stroke:none;" d="M254 119L255 120L254 119z"/>
<path style="fill:#69644f; stroke:none;" d="M257.333 119.667L257.667 120.333L257.333 119.667z"/>
<path style="fill:#f6f6f6; stroke:none;" d="M258 119L257 127L258 127L258 119z"/>
<path style="fill:#69644f; stroke:none;" d="M259 119L260 120L259 119z"/>
<path style="fill:#9b9169; stroke:none;" d="M260 119L261 120L260 119z"/>
<path style="fill:#f6f6f6; stroke:none;" d="M261 119L261 120L263 127L264 127C264.447 123.116 265.158 120.394 261 119z"/>
<path style="fill:#9b9169; stroke:none;" d="M264 119L265 120L264 119z"/>
<path style="fill:#fcdd58; stroke:none;" d="M269 119L270 120L269 119z"/>
<path style="fill:#f6f6f6; stroke:none;" d="M274 126L268 129L268 130C275.523 130.962 275.983 125.089 276 119C268.005 119.604 265.218 127.982 274 126z"/>
<path style="fill:#69644f; stroke:none;" d="M274 119L275 120L274 119z"/>
<path style="fill:#9b9169; stroke:none;" d="M276.333 119.667L276.667 120.333L276.333 119.667z"/>
<path style="fill:#69644f; stroke:none;" d="M111.333 120.667L111.667 121.333L111.333 120.667z"/>
<path style="fill:#fcdd58; stroke:none;" d="M113 120L114 121L113 120z"/>
<path style="fill:#69644f; stroke:none;" d="M115 120L116 121L115 120z"/>
<path style="fill:#9b9169; stroke:none;" d="M116 120L117 121L116 120M128.667 120.333L129.333 120.667L128.667 120.333M133 120L134 121L133 120z"/>
<path style="fill:#69644f; stroke:none;" d="M134 120L135 121L134 120z"/>
<path style="fill:#9b9169; stroke:none;" d="M137.333 120.667L137.667 121.333L137.333 120.667z"/>
<path style="fill:#fcdd58; stroke:none;" d="M143 120L142 122L143 120z"/>
<path style="fill:#69644f; stroke:none;" d="M144.667 120.333L145.333 120.667L144.667 120.333z"/>
<path style="fill:#9b9169; stroke:none;" d="M146 120L147 121L146 120M153.333 120.667L153.667 121.333L153.333 120.667z"/>
<path style="fill:#69644f; stroke:none;" d="M156 120L157 121L156 120z"/>
<path style="fill:#9b9169; stroke:none;" d="M158 120L159 121L158 120M162 120L163 121L162 120M175 120L176 121L175 120z"/>
<path style="fill:#69644f; stroke:none;" d="M176 120L177 121L176 120M181 120L182 121L181 120z"/>
<path style="fill:#9b9169; stroke:none;" d="M182 120L183 121L182 120z"/>
<path style="fill:#fcdd58; stroke:none;" d="M184.333 120.667L184.667 121.333L184.333 120.667z"/>
<path style="fill:#69644f; stroke:none;" d="M190.667 120.333L191.333 120.667L190.667 120.333z"/>
<path style="fill:#9b9169; stroke:none;" d="M192 120L193 121L192 120z"/>
<path style="fill:#fcdd58; stroke:none;" d="M194 120L195 121L194 120z"/>
<path style="fill:#f6f6f6; stroke:none;" d="M198 120L201 126L197 125L197 126C202.675 126.875 201.162 122.672 198 120z"/>
<path style="fill:#69644f; stroke:none;" d="M201 120L202 121L201 120z"/>
<path style="fill:#9b9169; stroke:none;" d="M209.667 120.333L210.333 120.667L209.667 120.333M214 120L215 121L214 120z"/>
<path style="fill:#69644f; stroke:none;" d="M215 120L216 121L215 120z"/>
<path style="fill:#9b9169; stroke:none;" d="M218.333 120.667L218.667 121.333L218.333 120.667M221 120L222 121L221 120z"/>
<path style="fill:#fcdd58; stroke:none;" d="M223 120L224 121L223 120z"/>
<path style="fill:#69644f; stroke:none;" d="M224.667 120.333L225.333 120.667L224.667 120.333z"/>
<path style="fill:#fcdd58; stroke:none;" d="M226 120L227 121L226 120z"/>
<path style="fill:#9b9169; stroke:none;" d="M228 120L229 121L228 120M233 120L234 121L233 120z"/>
<path style="fill:#69644f; stroke:none;" d="M236 120L237 121L236 120z"/>
<path style="fill:#9b9169; stroke:none;" d="M240.333 120.667L240.667 121.333L240.333 120.667z"/>
<path style="fill:#69644f; stroke:none;" d="M249 120L250 121L249 120M254 120L254 123L255 123L254 120z"/>
<path style="fill:#fcdd58; stroke:none;" d="M260 120L261 121L260 120z"/>
<path style="fill:#69644f; stroke:none;" d="M261 120L262 121L261 120z"/>
<path style="fill:#9b9169; stroke:none;" d="M262 120L263 121L262 120M270 120L269 122L270 120z"/>
<path style="fill:#69644f; stroke:none;" d="M271.667 120.333L272.333 120.667L271.667 120.333z"/>
<path style="fill:#fcdd58; stroke:none;" d="M273 120L274 121L273 120z"/>
<path style="fill:#9b9169; stroke:none;" d="M113 121L114 122L113 121z"/>
<path style="fill:#69644f; stroke:none;" d="M124.333 121.667L124.667 122.333L124.333 121.667z"/>
<path style="fill:#9b9169; stroke:none;" d="M132 121L133 122L132 121z"/>
<path style="fill:#69644f; stroke:none;" d="M135 121L136 122L135 121M140.333 121.667L140.667 122.333L140.333 121.667z"/>
<path style="fill:#020202; stroke:none;" d="M143 121L143 125L147 121L143 121z"/>
<path style="fill:#fcdd58; stroke:none;" d="M147 121L148 122L147 121z"/>
<path style="fill:#69644f; stroke:none;" d="M149 121L149 124L150 124L149 121M151.333 121.667L151.667 122.333L151.333 121.667M161 121L162 122L161 121z"/>
<path style="fill:#9b9169; stroke:none;" d="M163 121L164 122L163 121z"/>
<path style="fill:#69644f; stroke:none;" d="M174 121L175 122L174 121z"/>
<path style="fill:#9b9169; stroke:none;" d="M177.333 121.667L177.667 122.333L177.333 121.667z"/>
<path style="fill:#020202; stroke:none;" d="M189 123L193 122L189 123z"/>
<path style="fill:#fcdd58; stroke:none;" d="M193 121L194 122L193 121z"/>
<path style="fill:#69644f; stroke:none;" d="M195.333 121.667L195.667 122.333L195.333 121.667M205.333 121.667L205.667 122.333L205.333 121.667z"/>
<path style="fill:#9b9169; stroke:none;" d="M213 121L214 122L213 121z"/>
<path style="fill:#69644f; stroke:none;" d="M216 121L217 122L216 121z"/>
<path style="fill:#020202; stroke:none;" d="M223 121L223 122L227 122L223 121z"/>
<path style="fill:#9b9169; stroke:none;" d="M231.333 121.667L231.667 122.333L231.333 121.667z"/>
<path style="fill:#69644f; stroke:none;" d="M238.333 121.667L238.667 122.333L238.333 121.667M248 121L249 122L248 121z"/>
<path style="fill:#9b9169; stroke:none;" d="M252.333 121.667L252.667 122.333L252.333 121.667M257.333 121.667L257.667 122.333L257.333 121.667z"/>
<path style="fill:#fcdd58; stroke:none;" d="M259 121L260 122L259 121z"/>
<path style="fill:#9b9169; stroke:none;" d="M267 121L268 122L267 121z"/>
<path style="fill:#020202; stroke:none;" d="M269 122L269 124C272.137 124.494 273 124.036 274 121L269 122z"/>
<path style="fill:#69644f; stroke:none;" d="M276 121L276 124L277 124L276 121z"/>
<path style="fill:#9b9169; stroke:none;" d="M115 122L116 123L115 122M121.333 122.667L121.667 123.333L121.333 122.667M126 122L127 123L126 122M135 122L135 125L136 125L135 122z"/>
<path style="fill:#69644f; stroke:none;" d="M137.333 122.667L137.667 123.333L137.333 122.667M142.333 122.667L142.667 123.333L142.333 122.667z"/>
<path style="fill:#9b9169; stroke:none;" d="M147.333 122.667L147.667 123.333L147.333 122.667z"/>
<path style="fill:#69644f; stroke:none;" d="M153 122L153 125L154 125L153 122z"/>
<path style="fill:#9b9169; stroke:none;" d="M157 122L158 123L157 122z"/>
<path style="fill:#69644f; stroke:none;" d="M159 122L161 124L159 122z"/>
<path style="fill:#fcdd58; stroke:none;" d="M173 122L174 123L173 122z"/>
<path style="fill:#69644f; stroke:none;" d="M179 122L180 123L179 122M182.333 122.667L182.667 123.333L182.333 122.667z"/>
<path style="fill:#9b9169; stroke:none;" d="M184.333 122.667L184.667 123.333L184.333 122.667M188 122L189 123L188 122z"/>
<path style="fill:#69644f; stroke:none;" d="M190 122L191 123L190 122z"/>
<path style="fill:#9b9169; stroke:none;" d="M191.333 122.667L191.667 123.333L191.333 122.667M194 122L195 123L194 122z"/>
<path style="fill:#69644f; stroke:none;" d="M197 122L198 123L197 122M201 122L202 123L201 122z"/>
<path style="fill:#9b9169; stroke:none;" d="M207 122L208 123L207 122M216 122L216 125L217 125L216 122z"/>
<path style="fill:#69644f; stroke:none;" d="M218.333 122.667L218.667 123.333L218.333 122.667M220 122L220 125L221 125L220 122z"/>
<path style="fill:#9b9169; stroke:none;" d="M222 122L223 123L222 122z"/>
<path style="fill:#69644f; stroke:none;" d="M223 122L224 123L223 122z"/>
<path style="fill:#9b9169; stroke:none;" d="M224 122L226 124L224 122z"/>
<path style="fill:#fcdd58; stroke:none;" d="M225 122L226 123L225 122z"/>
<path style="fill:#9b9169; stroke:none;" d="M228 122L229 123L228 122z"/>
<path style="fill:#69644f; stroke:none;" d="M233 122L234 123L233 122M240 122L240 125L241 125L240 122M245 122L244 124L245 122z"/>
<path style="fill:#f6f6f6; stroke:none;" d="M246 122L243 127L249 127L249 126L245 126L246 122z"/>
<path style="fill:#69644f; stroke:none;" d="M259 122L260 123L259 122z"/>
<path style="fill:#9b9169; stroke:none;" d="M274.333 122.667L274.667 123.333L274.333 122.667M113 123L114 124L113 123M116 123L117 124L116 123z"/>
<path style="fill:#69644f; stroke:none;" d="M119.333 123.667L119.667 124.333L119.333 123.667z"/>
<path style="fill:#9b9169; stroke:none;" d="M124.333 123.667L124.667 124.333L124.333 123.667z"/>
<path style="fill:#69644f; stroke:none;" d="M126.333 123.667L126.667 124.333L126.333 123.667z"/>
<path style="fill:#9b9169; stroke:none;" d="M140.333 123.667L140.667 124.333L140.333 123.667M151.333 123.667L151.667 124.333L151.333 123.667z"/>
<path style="fill:#69644f; stroke:none;" d="M157 123L158 124L157 123z"/>
<path style="fill:#9b9169; stroke:none;" d="M159 123L160 124L159 123z"/>
<path style="fill:#69644f; stroke:none;" d="M162 123L163 124L162 123M171.333 123.667L171.667 124.333L171.333 123.667z"/>
<path style="fill:#9b9169; stroke:none;" d="M173 123L174 124L173 123z"/>
<path style="fill:#69644f; stroke:none;" d="M192 123L193 124L192 123M198 123L199 124L198 123z"/>
<path style="fill:#9b9169; stroke:none;" d="M199 123L200 124L199 123z"/>
<path style="fill:#69644f; stroke:none;" d="M202 123L203 124L202 123z"/>
<path style="fill:#9b9169; stroke:none;" d="M205.333 123.667L205.667 124.333L205.333 123.667z"/>
<path style="fill:#69644f; stroke:none;" d="M207.333 123.667L207.667 124.333L207.333 123.667z"/>
<path style="fill:#fcdd58; stroke:none;" d="M224 123L225 124L224 123z"/>
<path style="fill:#69644f; stroke:none;" d="M226 123L227 124L226 123z"/>
<path style="fill:#fcdd58; stroke:none;" d="M231 123L232 124L231 123z"/>
<path style="fill:#9b9169; stroke:none;" d="M238.333 123.667L238.667 124.333L238.333 123.667z"/>
<path style="fill:#fcdd58; stroke:none;" d="M246 123L247 124L246 123M257 123L258 124L257 123M264 123L265 124L264 123z"/>
<path style="fill:#69644f; stroke:none;" d="M121 124L121 127L122 127L121 124M129 124L129 127L130 127L129 124z"/>
<path style="fill:#9b9169; stroke:none;" d="M131.333 124.667L131.667 125.333L131.333 124.667M142 124L143 125L142 124z"/>
<path style="fill:#69644f; stroke:none;" d="M146 124L147 125L146 124M173 124L173 127L174 127L173 124z"/>
<path style="fill:#9b9169; stroke:none;" d="M182 124L182 127L183 127L182 124z"/>
<path style="fill:#69644f; stroke:none;" d="M184.333 124.667L184.667 125.333L184.333 124.667M189 124L190 125L189 124M200 124L198 125L198 126L200 124z"/>
<path style="fill:#9b9169; stroke:none;" d="M202 124L203 125L202 124z"/>
<path style="fill:#69644f; stroke:none;" d="M210 124L210 127L211 127L210 124z"/>
<path style="fill:#9b9169; stroke:none;" d="M212.333 124.667L212.667 125.333L212.333 124.667z"/>
<path style="fill:#69644f; stroke:none;" d="M262 124L262 127L263 127L262 124z"/>
<path style="fill:#9b9169; stroke:none;" d="M264.333 124.667L264.667 125.333L264.333 124.667M267 124L268 125L267 124z"/>
<path style="fill:#69644f; stroke:none;" d="M269 124L270 125L269 124M273 124L274 125L273 124M101.333 125.667L101.667 126.333L101.333 125.667z"/>
<path style="fill:#f6f6f6; stroke:none;" d="M102.333 125.667L102.667 126.333L102.333 125.667z"/>
<path style="fill:#69644f; stroke:none;" d="M103.333 125.667L103.667 126.333L103.333 125.667z"/>
<path style="fill:#f6f6f6; stroke:none;" d="M105.333 125.667L105.667 126.333L105.333 125.667z"/>
<path style="fill:#9b9169; stroke:none;" d="M106.333 125.667L106.667 126.333L106.333 125.667z"/>
<path style="fill:#fcdd58; stroke:none;" d="M108 125L110 127L108 125z"/>
<path style="fill:#f6f6f6; stroke:none;" d="M109 125L110 126L109 125z"/>
<path style="fill:#9b9169; stroke:none;" d="M112 125L113 126L112 125z"/>
<path style="fill:#69644f; stroke:none;" d="M113.667 125.333L114.333 125.667L113.667 125.333z"/>
<path style="fill:#9b9169; stroke:none;" d="M116 125L117 126L116 125M119.333 125.667L119.667 126.333L119.333 125.667z"/>
<path style="fill:#fcdd58; stroke:none;" d="M124 125L125 126L124 125M140 125L141 126L140 125z"/>
<path style="fill:#9b9169; stroke:none;" d="M143 125L144 126L143 125z"/>
<path style="fill:#69644f; stroke:none;" d="M144 125L145 126L144 125z"/>
<path style="fill:#9b9169; stroke:none;" d="M145 125L146 126L145 125z"/>
<path style="fill:#69644f; stroke:none;" d="M148 125L149 126L148 125z"/>
<path style="fill:#fcdd58; stroke:none;" d="M151 125L152 126L151 125z"/>
<path style="fill:#9b9169; stroke:none;" d="M158 125L159 126L158 125z"/>
<path style="fill:#69644f; stroke:none;" d="M161 125L162 126L161 125z"/>
<path style="fill:#9b9169; stroke:none;" d="M171.333 125.667L171.667 126.333L171.333 125.667M187 125L188 126L187 125M190 125L191 126L190 125z"/>
<path style="fill:#69644f; stroke:none;" d="M191 125L192 126L191 125z"/>
<path style="fill:#9b9169; stroke:none;" d="M192 125L193 126L192 125z"/>
<path style="fill:#69644f; stroke:none;" d="M193.333 125.667L193.667 126.333L193.333 125.667M196 125L197 126L196 125z"/>
<path style="fill:#9b9169; stroke:none;" d="M200 125L201 126L200 125z"/>
<path style="fill:#69644f; stroke:none;" d="M202 125L203 126L202 125z"/>
<path style="fill:#fcdd58; stroke:none;" d="M205 125L206 126L205 125M221 125L222 126L221 125z"/>
<path style="fill:#69644f; stroke:none;" d="M224 125L225 126L224 125z"/>
<path style="fill:#9b9169; stroke:none;" d="M225 125L226 126L225 125z"/>
<path style="fill:#fcdd58; stroke:none;" d="M226 125L227 126L226 125M243 125L244 126L243 125z"/>
<path style="fill:#9b9169; stroke:none;" d="M245 125L245 126L250 127L245 125z"/>
<path style="fill:#69644f; stroke:none;" d="M249 125L250 126L249 125M267 125L268 126L267 125z"/>
<path style="fill:#9b9169; stroke:none;" d="M270 125L271 126L270 125z"/>
<path style="fill:#69644f; stroke:none;" d="M271 125L272 126L271 125z"/>
<path style="fill:#9b9169; stroke:none;" d="M272 125L273 126L272 125z"/>
<path style="fill:#f6f6f6; stroke:none;" d="M108 126L109 127L108 126z"/>
<path style="fill:#9b9169; stroke:none;" d="M111 126L112 127L111 126z"/>
<path style="fill:#fcdd58; stroke:none;" d="M115 126L116 127L115 126z"/>
<path style="fill:#69644f; stroke:none;" d="M131 126L132 127L131 126z"/>
<path style="fill:#9b9169; stroke:none;" d="M142 126L143 127L142 126z"/>
<path style="fill:#fcdd58; stroke:none;" d="M146 126L147 127L146 126z"/>
<path style="fill:#69644f; stroke:none;" d="M147 126L148 127L147 126M158 126L159 127L158 126z"/>
<path style="fill:#9b9169; stroke:none;" d="M160 126L161 127L160 126z"/>
<path style="fill:#69644f; stroke:none;" d="M176 126L177 127L176 126z"/>
<path style="fill:#9b9169; stroke:none;" d="M178 126L179 127L178 126M188 126L189 127L188 126M197 126L198 127L197 126M201 126L202 127L201 126z"/>
<path style="fill:#69644f; stroke:none;" d="M212 126L213 127L212 126z"/>
<path style="fill:#9b9169; stroke:none;" d="M222 126L223 127L222 126z"/>
<path style="fill:#69644f; stroke:none;" d="M227 126L228 127L227 126z"/>
<path style="fill:#9b9169; stroke:none;" d="M232 126L233 127L232 126M242 126L243 127L242 126M253 126L254 127L253 126M258 126L259 127L258 126z"/>
<path style="fill:#69644f; stroke:none;" d="M264 126L265 127L264 126M268 126L269 127L268 126M273.333 126.667L273.667 127.333L273.333 126.667z"/>
<path style="fill:#fcdd58; stroke:none;" d="M141 127L142 128L141 127z"/>
<path style="fill:#69644f; stroke:none;" d="M144 127L145 128L144 127z"/>
<path style="fill:#9b9169; stroke:none;" d="M158 127L159 128L158 127M275 127L276 128L275 127M141.333 128.667L141.667 129.333L141.333 128.667z"/>
<path style="fill:#69644f; stroke:none;" d="M157 128L158 129L157 128z"/>
<path style="fill:#9b9169; stroke:none;" d="M159 128L160 129L159 128z"/>
<path style="fill:#69644f; stroke:none;" d="M267 128L268 129L267 128z"/>
<path style="fill:#9b9169; stroke:none;" d="M268 128L269 129L268 128M273 128L274 129L273 128z"/>
<path style="fill:#69644f; stroke:none;" d="M275 128L276 129L275 128M139.333 129.667L139.667 130.333L139.333 129.667z"/>
<path style="fill:#9b9169; stroke:none;" d="M267 129L268 130L267 129z"/>
<path style="fill:#fcdd58; stroke:none;" d="M270 129L271 130L270 129z"/>
<path style="fill:#9b9169; stroke:none;" d="M271 129L272 130L271 129M274 129L275 130L274 129z"/>
<path style="fill:#69644f; stroke:none;" d="M141 130L142 131L141 130M156 130L157 131L156 130M158 130L159 131L158 130M268 130L269 131L268 130z"/>
<path style="fill:#fcdd58; stroke:none;" d="M269 130L270 131L269 130M272 130L273 131L272 130z"/>
<path style="fill:#69644f; stroke:none;" d="M273 130L274 131L273 130z"/>
</svg>
